<svg width="15" height="17" viewBox="0 0 15 17" fill="none" xmlns="http://www.w3.org/2000/svg">
<path d="M14.5833 3.33333C12.4083 3.91667 9.85833 4.16667 7.5 4.16667C5.14167 4.16667 2.59167 3.91667 0.416667 3.33333L0 5C1.55 5.41667 3.33333 5.69167 5 5.83333V16.6667H6.66667V11.6667H8.33333V16.6667H10V5.83333C11.6667 5.69167 13.45 5.41667 15 5L14.5833 3.33333ZM7.5 3.33333C8.41667 3.33333 9.16667 2.58333 9.16667 1.66667C9.16667 0.75 8.41667 0 7.5 0C6.58333 0 5.83333 0.75 5.83333 1.66667C5.83333 2.58333 6.58333 3.33333 7.5 3.33333Z" fill="white"/>
</svg>
