<svg width="16" height="16" viewBox="0 0 16 16" fill="none" xmlns="http://www.w3.org/2000/svg">
<mask id="mask0_3978_10257" style="mask-type:alpha" maskUnits="userSpaceOnUse" x="0" y="0" width="16" height="16">
<rect width="16" height="16" fill="#D9D9D9"/>
</mask>
<g mask="url(#mask0_3978_10257)">
<path d="M4.79095 8.49984L6.98578 10.6947C7.085 10.7939 7.13395 10.9099 7.13261 11.0428C7.13139 11.1757 7.08244 11.2939 6.98578 11.3973C6.88244 11.5007 6.76367 11.5541 6.62944 11.5575C6.49522 11.5609 6.37645 11.5109 6.27311 11.4075L3.28711 8.42167C3.16667 8.30111 3.10645 8.1605 3.10645 7.99984C3.10645 7.83917 3.16667 7.69856 3.28711 7.578L6.27311 4.59217C6.37222 4.49306 6.48995 4.44411 6.62628 4.44533C6.76261 4.44667 6.88244 4.499 6.98578 4.60234C7.08244 4.70578 7.13245 4.82289 7.13578 4.95367C7.13922 5.08445 7.08922 5.20156 6.98578 5.305L4.79095 7.49984H12.6346C12.7765 7.49984 12.8953 7.54772 12.9909 7.6435C13.0867 7.73917 13.1346 7.85795 13.1346 7.99984C13.1346 8.14172 13.0867 8.2605 12.9909 8.35617C12.8953 8.45195 12.7765 8.49984 12.6346 8.49984H4.79095Z" fill="#003366"/>
</g>
</svg>
