<svg width="16" height="16" viewBox="0 0 16 16" fill="none" xmlns="http://www.w3.org/2000/svg">
<mask id="mask0_2777_53752" style="mask-type:alpha" maskUnits="userSpaceOnUse" x="0" y="0" width="16" height="16">
<rect width="16" height="16" fill="#D9D9D9"/>
</mask>
<g mask="url(#mask0_2777_53752)">
<path d="M3.53842 14.3333C3.20164 14.3333 2.91659 14.2167 2.68325 13.9833C2.44992 13.75 2.33325 13.465 2.33325 13.1282V4.20518C2.33325 3.8684 2.44992 3.58334 2.68325 3.35001C2.91659 3.11668 3.20164 3.00001 3.53842 3.00001H4.46142V2.10251C4.46142 1.9564 4.51036 1.8344 4.60825 1.73651C4.70614 1.63873 4.82814 1.58984 4.97425 1.58984C5.12047 1.58984 5.24247 1.63873 5.34025 1.73651C5.43814 1.8344 5.48709 1.9564 5.48709 2.10251V3.00001H10.5384V2.08984C10.5384 1.94795 10.5863 1.82912 10.6819 1.73334C10.7777 1.63768 10.8965 1.58984 11.0384 1.58984C11.1803 1.58984 11.2991 1.63768 11.3948 1.73334C11.4905 1.82912 11.5384 1.94795 11.5384 2.08984V3.00001H12.4614C12.7982 3.00001 13.0833 3.11668 13.3166 3.35001C13.5499 3.58334 13.6666 3.8684 13.6666 4.20518V13.1282C13.6666 13.465 13.5499 13.75 13.3166 13.9833C13.0833 14.2167 12.7982 14.3333 12.4614 14.3333H3.53842ZM3.53842 13.3333H12.4614C12.5128 13.3333 12.5598 13.312 12.6024 13.2692C12.6452 13.2265 12.6666 13.1795 12.6666 13.1282V6.87184H3.33325V13.1282C3.33325 13.1795 3.35464 13.2265 3.39742 13.2692C3.44009 13.312 3.48709 13.3333 3.53842 13.3333ZM3.33325 5.87184H12.6666V4.20518C12.6666 4.15384 12.6452 4.10684 12.6024 4.06418C12.5598 4.0214 12.5128 4.00001 12.4614 4.00001H3.53842C3.48709 4.00001 3.44009 4.0214 3.39742 4.06418C3.35464 4.10684 3.33325 4.15384 3.33325 4.20518V5.87184ZM7.99992 9.38468C7.8367 9.38468 7.69759 9.32718 7.58258 9.21218C7.4677 9.09729 7.41025 8.95818 7.41025 8.79484C7.41025 8.63162 7.4677 8.49251 7.58258 8.37751C7.69759 8.26262 7.8367 8.20518 7.99992 8.20518C8.16314 8.20518 8.30225 8.26262 8.41725 8.37751C8.53214 8.49251 8.58959 8.63162 8.58959 8.79484C8.58959 8.95818 8.53214 9.09729 8.41725 9.21218C8.30225 9.32718 8.16314 9.38468 7.99992 9.38468ZM5.33325 9.38468C5.17003 9.38468 5.03092 9.32718 4.91592 9.21218C4.80103 9.09729 4.74359 8.95818 4.74359 8.79484C4.74359 8.63162 4.80103 8.49251 4.91592 8.37751C5.03092 8.26262 5.17003 8.20518 5.33325 8.20518C5.49647 8.20518 5.63559 8.26262 5.75059 8.37751C5.86547 8.49251 5.92292 8.63162 5.92292 8.79484C5.92292 8.95818 5.86547 9.09729 5.75059 9.21218C5.63559 9.32718 5.49647 9.38468 5.33325 9.38468ZM10.6666 9.38468C10.5034 9.38468 10.3643 9.32718 10.2493 9.21218C10.1344 9.09729 10.0769 8.95818 10.0769 8.79484C10.0769 8.63162 10.1344 8.49251 10.2493 8.37751C10.3643 8.26262 10.5034 8.20518 10.6666 8.20518C10.8298 8.20518 10.9689 8.26262 11.0839 8.37751C11.1988 8.49251 11.2563 8.63162 11.2563 8.79484C11.2563 8.95818 11.1988 9.09729 11.0839 9.21218C10.9689 9.32718 10.8298 9.38468 10.6666 9.38468ZM7.99992 12C7.8367 12 7.69759 11.9425 7.58258 11.8275C7.4677 11.7126 7.41025 11.5736 7.41025 11.4103C7.41025 11.247 7.4677 11.1079 7.58258 10.993C7.69759 10.878 7.8367 10.8205 7.99992 10.8205C8.16314 10.8205 8.30225 10.878 8.41725 10.993C8.53214 11.1079 8.58959 11.247 8.58959 11.4103C8.58959 11.5736 8.53214 11.7126 8.41725 11.8275C8.30225 11.9425 8.16314 12 7.99992 12ZM5.33325 12C5.17003 12 5.03092 11.9425 4.91592 11.8275C4.80103 11.7126 4.74359 11.5736 4.74359 11.4103C4.74359 11.247 4.80103 11.1079 4.91592 10.993C5.03092 10.878 5.17003 10.8205 5.33325 10.8205C5.49647 10.8205 5.63559 10.878 5.75059 10.993C5.86547 11.1079 5.92292 11.247 5.92292 11.4103C5.92292 11.5736 5.86547 11.7126 5.75059 11.8275C5.63559 11.9425 5.49647 12 5.33325 12ZM10.6666 12C10.5034 12 10.3643 11.9425 10.2493 11.8275C10.1344 11.7126 10.0769 11.5736 10.0769 11.4103C10.0769 11.247 10.1344 11.1079 10.2493 10.993C10.3643 10.878 10.5034 10.8205 10.6666 10.8205C10.8298 10.8205 10.9689 10.878 11.0839 10.993C11.1988 11.1079 11.2563 11.247 11.2563 11.4103C11.2563 11.5736 11.1988 11.7126 11.0839 11.8275C10.9689 11.9425 10.8298 12 10.6666 12Z" fill="#6B7280"/>
</g>
</svg>
