<svg width="72" height="72" viewBox="0 0 72 72" fill="none" xmlns="http://www.w3.org/2000/svg">
<circle opacity="0.8" cx="36" cy="36" r="18" fill="#27682A"/>
<g filter="url(#filter0_d_2777_53367)">
<circle cx="36" cy="36" r="18" fill="#27682A"/>
</g>
<mask id="mask0_2777_53367" style="mask-type:alpha" maskUnits="userSpaceOnUse" x="25" y="26" width="21" height="20">
<rect x="25.5" y="26" width="20" height="20" fill="#D9D9D9"/>
</mask>
<g mask="url(#mask0_2777_53367)">
<path d="M41.7 43.0832C40.1296 43.0832 38.5519 42.718 36.9669 41.9878C35.3821 41.2575 33.9259 40.2273 32.5984 38.8973C31.271 37.5672 30.2422 36.1109 29.5119 34.5286C28.7816 32.9464 28.4165 31.37 28.4165 29.7996C28.4165 29.5473 28.4998 29.337 28.6665 29.1688C28.8332 29.0006 29.0415 28.9165 29.2915 28.9165H32.0094C32.2198 28.9165 32.4055 28.9852 32.5663 29.1225C32.7271 29.2598 32.8294 29.4294 32.8732 29.6313L33.3509 32.0832C33.3839 32.3107 33.377 32.5062 33.33 32.6696C33.283 32.8331 33.1985 32.9704 33.0767 33.0815L31.1521 34.955C31.4619 35.5223 31.8157 36.0589 32.2138 36.5648C32.6117 37.0707 33.0425 37.5538 33.5063 38.0142C33.9635 38.4716 34.4496 38.8963 34.9646 39.2884C35.4796 39.6805 36.0357 40.0453 36.633 40.383L38.503 38.4967C38.6334 38.361 38.7913 38.2659 38.9767 38.2113C39.162 38.1569 39.3546 38.1435 39.5544 38.1713L41.8684 38.6425C42.0788 38.6981 42.2505 38.8055 42.3836 38.9646C42.5166 39.1238 42.5832 39.3044 42.5832 39.5063V42.2082C42.5832 42.4582 42.4991 42.6665 42.3309 42.8332C42.1627 42.9998 41.9524 43.0832 41.7 43.0832ZM30.5607 33.7723L32.048 32.3492C32.0746 32.3278 32.092 32.2984 32.1 32.2611C32.1081 32.2237 32.1068 32.189 32.0961 32.1569L31.7338 30.2946C31.7231 30.252 31.7044 30.22 31.6778 30.1986C31.6511 30.1772 31.6164 30.1665 31.5736 30.1665H29.7915C29.7594 30.1665 29.7327 30.1772 29.7113 30.1986C29.69 30.22 29.6794 30.2467 29.6794 30.2788C29.7221 30.8482 29.8153 31.4267 29.959 32.0142C30.1026 32.6019 30.3032 33.1879 30.5607 33.7723ZM37.8107 40.9742C38.363 41.2317 38.9391 41.4286 39.539 41.5648C40.139 41.7009 40.6996 41.7819 41.2209 41.8075C41.253 41.8075 41.2797 41.7969 41.3011 41.7755C41.3225 41.7541 41.3332 41.7273 41.3332 41.6953V39.9421C41.3332 39.8994 41.3225 39.8646 41.3011 39.838C41.2797 39.8113 41.2477 39.7926 41.205 39.7819L39.455 39.4261C39.423 39.4154 39.3949 39.4141 39.3709 39.4221C39.3469 39.4302 39.3214 39.4475 39.2946 39.4742L37.8107 40.9742Z" fill="white"/>
</g>
<defs>
<filter id="filter0_d_2777_53367" x="18" y="18" width="36" height="36" filterUnits="userSpaceOnUse" color-interpolation-filters="sRGB">
<feFlood flood-opacity="0" result="BackgroundImageFix"/>
<feColorMatrix in="SourceAlpha" type="matrix" values="0 0 0 0 0 0 0 0 0 0 0 0 0 0 0 0 0 0 127 0" result="hardAlpha"/>
<feOffset/>
<feComposite in2="hardAlpha" operator="out"/>
<feColorMatrix type="matrix" values="0 0 0 0 0.180392 0 0 0 0 0.490196 0 0 0 0 0.196078 0 0 0 0.48 0"/>
<feBlend mode="normal" in2="BackgroundImageFix" result="effect1_dropShadow_2777_53367"/>
<feBlend mode="normal" in="SourceGraphic" in2="effect1_dropShadow_2777_53367" result="shape"/>
</filter>
</defs>
</svg>
