<svg width="16" height="16" viewBox="0 0 16 16" fill="none" xmlns="http://www.w3.org/2000/svg">
<mask id="mask0_3978_3036" style="mask-type:alpha" maskUnits="userSpaceOnUse" x="0" y="0" width="16" height="16">
<rect width="16" height="16" fill="#D9D9D9"/>
</mask>
<g mask="url(#mask0_3978_3036)">
<path d="M12.9603 13.6663C11.704 13.6663 10.4418 13.3742 9.17383 12.79C7.90594 12.2058 6.741 11.3817 5.679 10.3177C4.61711 9.25356 3.79405 8.08856 3.20983 6.82267C2.62561 5.5569 2.3335 4.29584 2.3335 3.03951C2.3335 2.83762 2.40016 2.6694 2.5335 2.53484C2.66683 2.40029 2.8335 2.33301 3.0335 2.33301H5.20783C5.37616 2.33301 5.52466 2.38795 5.65333 2.49784C5.782 2.60762 5.86383 2.74329 5.89883 2.90484L6.281 4.86634C6.30744 5.04834 6.30188 5.20473 6.26433 5.33551C6.22666 5.46629 6.15911 5.57612 6.06166 5.66501L4.522 7.16384C4.76977 7.61762 5.05288 8.0469 5.37133 8.45167C5.68966 8.85634 6.03433 9.24284 6.40533 9.61117C6.77111 9.97706 7.16 10.3168 7.572 10.6305C7.984 10.9442 8.42888 11.2361 8.90666 11.5062L10.4027 9.99717C10.507 9.88862 10.6333 9.81251 10.7817 9.76884C10.9299 9.72529 11.0839 9.71462 11.2438 9.73684L13.095 10.1138C13.2633 10.1583 13.4007 10.2442 13.5072 10.3715C13.6136 10.4988 13.6668 10.6433 13.6668 10.8048V12.9663C13.6668 13.1663 13.5996 13.333 13.465 13.4663C13.3304 13.5997 13.1622 13.6663 12.9603 13.6663ZM4.04883 6.21767L5.23866 5.07917C5.26 5.06206 5.27388 5.03856 5.28033 5.00867C5.28677 4.97879 5.28572 4.95101 5.27716 4.92534L4.98733 3.43551C4.97877 3.4014 4.96383 3.37579 4.9425 3.35867C4.92116 3.34156 4.89338 3.33301 4.85916 3.33301H3.4335C3.40783 3.33301 3.38644 3.34156 3.36933 3.35867C3.35233 3.37579 3.34383 3.39717 3.34383 3.42284C3.37794 3.8784 3.4525 4.34117 3.5675 4.81117C3.68238 5.28129 3.84283 5.75012 4.04883 6.21767ZM9.84883 11.9792C10.2907 12.1852 10.7516 12.3427 11.2315 12.4517C11.7115 12.5606 12.16 12.6253 12.577 12.6458C12.6027 12.6458 12.6241 12.6373 12.6412 12.6202C12.6583 12.6031 12.6668 12.5817 12.6668 12.556V11.1535C12.6668 11.1193 12.6583 11.0915 12.6412 11.0702C12.6241 11.0488 12.5984 11.0339 12.5643 11.0253L11.1643 10.7407C11.1387 10.7321 11.1162 10.7311 11.097 10.7375C11.0778 10.744 11.0574 10.7578 11.036 10.7792L9.84883 11.9792Z" fill="#003366"/>
</g>
</svg>
