<svg width="20" height="20" viewBox="0 0 20 20" fill="none" xmlns="http://www.w3.org/2000/svg">
<mask id="mask0_2777_53889" style="mask-type:alpha" maskUnits="userSpaceOnUse" x="0" y="0" width="20" height="20">
<rect width="20" height="20" fill="#D9D9D9"/>
</mask>
<g mask="url(#mask0_2777_53889)">
<path d="M17.3557 10.6243H15.5928C15.4154 10.6243 15.267 10.5644 15.1474 10.4447C15.0277 10.3251 14.9678 10.1767 14.9678 9.9993C14.9678 9.82194 15.0277 9.67346 15.1474 9.55388C15.267 9.43416 15.4154 9.3743 15.5928 9.3743H17.3557C17.5331 9.3743 17.6815 9.43416 17.8011 9.55388C17.9209 9.67346 17.9807 9.82194 17.9807 9.9993C17.9807 10.1767 17.9209 10.3251 17.8011 10.4447C17.6815 10.5644 17.5331 10.6243 17.3557 10.6243ZM13.8893 13.9272C13.9961 13.7808 14.1326 13.6964 14.2988 13.6739C14.4649 13.6515 14.6212 13.6937 14.7676 13.8005L16.173 14.8566C16.3194 14.9635 16.4038 15.1001 16.4261 15.2662C16.4486 15.4323 16.4064 15.5885 16.2995 15.7349C16.1927 15.8812 16.0562 15.9655 15.8901 15.988C15.724 16.0105 15.5677 15.9683 15.4213 15.8614L14.0159 14.8053C13.8695 14.6985 13.7852 14.5621 13.7628 14.396C13.7403 14.2299 13.7824 14.0736 13.8893 13.9272ZM16.1409 5.10992L14.7355 6.16596C14.5891 6.27277 14.4329 6.31499 14.2668 6.29263C14.1006 6.27013 13.9641 6.18568 13.8572 6.0393C13.7504 5.89305 13.7082 5.7368 13.7307 5.57055C13.7531 5.40443 13.8374 5.26798 13.9838 5.16117L15.3893 4.10513C15.5356 3.99832 15.6919 3.9561 15.858 3.97846C16.0241 4.00096 16.1606 4.08534 16.2676 4.23159C16.3744 4.37798 16.4165 4.53423 16.394 4.70034C16.3717 4.86659 16.2873 5.00312 16.1409 5.10992ZM4.37488 12.1468H3.5255C3.10995 12.1468 2.75502 11.9996 2.46071 11.7051C2.16627 11.4108 2.01904 11.0559 2.01904 10.6403V9.35826C2.01904 8.9427 2.16627 8.58777 2.46071 8.29346C2.75502 7.99902 3.10995 7.8518 3.5255 7.8518H6.74675L9.338 6.30221C9.58911 6.15152 9.84231 6.1502 10.0976 6.29825C10.353 6.44617 10.4807 6.66381 10.4807 6.95117V13.0474C10.4807 13.3348 10.353 13.5524 10.0976 13.7003C9.84231 13.8484 9.58911 13.8471 9.338 13.6964L6.74675 12.1468H5.62488V14.7749C5.62488 14.9523 5.56502 15.1008 5.44529 15.2203C5.32571 15.3401 5.17724 15.3999 4.99988 15.3999C4.82252 15.3999 4.67404 15.3401 4.55446 15.2203C4.43474 15.1008 4.37488 14.9523 4.37488 14.7749V12.1468ZM9.23071 12.1533V7.84534L7.09279 9.1018H3.5255C3.46147 9.1018 3.40272 9.12853 3.34925 9.182C3.29578 9.23548 3.26904 9.29423 3.26904 9.35826V10.6403C3.26904 10.7044 3.29578 10.7631 3.34925 10.8166C3.40272 10.8701 3.46147 10.8968 3.5255 10.8968H7.09279L9.23071 12.1533ZM11.6345 12.5987V7.39992C11.9614 7.69589 12.2247 8.06874 12.4245 8.51846C12.6243 8.96832 12.7243 9.46194 12.7243 9.9993C12.7243 10.5367 12.6243 11.0303 12.4245 11.4801C12.2247 11.9299 11.9614 12.3027 11.6345 12.5987Z" fill="#27682A"/>
</g>
</svg>
