<svg width="80" height="80" viewBox="0 0 80 80" fill="none" xmlns="http://www.w3.org/2000/svg">
<mask id="mask0_2777_53074" style="mask-type:alpha" maskUnits="userSpaceOnUse" x="0" y="0" width="80" height="80">
<rect width="80" height="80" fill="#D9D9D9"/>
</mask>
<g mask="url(#mask0_2777_53074)">
<path d="M40.0002 73.3337C35.278 73.3337 30.8891 72.4864 26.8335 70.792C22.778 69.0976 19.2502 66.7503 16.2502 63.7503C13.2502 60.7503 10.903 57.2225 9.20854 53.167C7.51409 49.1114 6.66687 44.7225 6.66687 40.0003C6.66687 35.3337 7.51409 30.9725 9.20854 26.917C10.903 22.8614 13.2502 19.3337 16.2502 16.3337C19.2502 13.3337 22.778 10.9725 26.8335 9.25033C30.8891 7.5281 35.278 6.66699 40.0002 6.66699C43.3335 6.66699 46.5835 7.1531 49.7502 8.12533C52.9169 9.09755 55.8891 10.5281 58.6669 12.417C59.278 12.8059 59.653 13.3337 59.7919 14.0003C59.9308 14.667 59.778 15.2781 59.3335 15.8337C58.8891 16.3892 58.3335 16.6948 57.6669 16.7503C57.0002 16.8059 56.3613 16.6392 55.7502 16.2503C53.4169 14.7503 50.9169 13.6114 48.2502 12.8337C45.5835 12.0559 42.8335 11.667 40.0002 11.667C31.9446 11.667 25.2085 14.3753 19.7919 19.792C14.3752 25.2087 11.6669 31.9448 11.6669 40.0003C11.6669 48.0559 14.3752 54.792 19.7919 60.2087C25.2085 65.6253 31.9446 68.3337 40.0002 68.3337C48.0558 68.3337 54.7919 65.6253 60.2085 60.2087C65.6252 54.792 68.3335 48.0559 68.3335 40.0003C68.3335 38.9448 68.2919 37.917 68.2085 36.917C68.1252 35.917 67.9724 34.9448 67.7502 34.0003C67.6391 33.2781 67.7502 32.6114 68.0835 32.0003C68.4169 31.3892 68.9169 31.0281 69.5835 30.917C70.3058 30.7503 70.9724 30.8753 71.5835 31.292C72.1946 31.7087 72.5558 32.2781 72.6669 33.0003C72.8891 34.1114 73.0558 35.2503 73.1669 36.417C73.278 37.5837 73.3335 38.7781 73.3335 40.0003C73.3335 44.7225 72.4724 49.1114 70.7502 53.167C69.028 57.2225 66.6669 60.7503 63.6669 63.7503C60.6669 66.7503 57.1391 69.0976 53.0835 70.792C49.028 72.4864 44.6669 73.3337 40.0002 73.3337ZM35.0835 47.5837L67.7502 14.917C68.2502 14.417 68.8613 14.167 69.5835 14.167C70.3058 14.167 70.9447 14.417 71.5002 14.917C72.0558 15.4725 72.3335 16.1114 72.3335 16.8337C72.3335 17.5559 72.0558 18.1948 71.5002 18.7503L36.8335 53.417C36.3335 53.917 35.7502 54.167 35.0835 54.167C34.4169 54.167 33.8335 53.917 33.3335 53.417L23.1669 43.167C22.6669 42.667 22.4308 42.042 22.4585 41.292C22.4863 40.542 22.7502 39.917 23.2502 39.417C23.7502 38.917 24.3752 38.667 25.1252 38.667C25.8752 38.667 26.5002 38.917 27.0002 39.417L35.0835 47.5837Z" fill="white"/>
</g>
</svg>
