<svg width="36" height="36" viewBox="0 0 36 36" fill="none" xmlns="http://www.w3.org/2000/svg">
<path d="M0 4C0 1.79086 1.79086 0 4 0H32C34.2091 0 36 1.79086 36 4V32C36 34.2091 34.2091 36 32 36H4C1.79086 36 0 34.2091 0 32V4Z" fill="#E8F5E9"/>
<mask id="mask0_2777_53888" style="mask-type:alpha" maskUnits="userSpaceOnUse" x="8" y="8" width="20" height="20">
<rect x="8" y="8" width="20" height="20" fill="#D9D9D9"/>
</mask>
<g mask="url(#mask0_2777_53888)">
<path d="M25.3557 18.6243H23.5928C23.4154 18.6243 23.267 18.5644 23.1474 18.4447C23.0277 18.3251 22.9678 18.1767 22.9678 17.9993C22.9678 17.8219 23.0277 17.6735 23.1474 17.5539C23.267 17.4342 23.4154 17.3743 23.5928 17.3743H25.3557C25.5331 17.3743 25.6815 17.4342 25.8011 17.5539C25.9209 17.6735 25.9807 17.8219 25.9807 17.9993C25.9807 18.1767 25.9209 18.3251 25.8011 18.4447C25.6815 18.5644 25.5331 18.6243 25.3557 18.6243ZM21.8893 21.9272C21.9961 21.7808 22.1326 21.6964 22.2988 21.6739C22.4649 21.6515 22.6212 21.6937 22.7676 21.8005L24.173 22.8566C24.3194 22.9635 24.4038 23.1001 24.4261 23.2662C24.4486 23.4323 24.4064 23.5885 24.2995 23.7349C24.1927 23.8812 24.0562 23.9655 23.8901 23.988C23.724 24.0105 23.5677 23.9683 23.4213 23.8614L22.0159 22.8053C21.8695 22.6985 21.7852 22.5621 21.7628 22.396C21.7403 22.2299 21.7824 22.0736 21.8893 21.9272ZM24.1409 13.1099L22.7355 14.166C22.5891 14.2728 22.4329 14.315 22.2668 14.2926C22.1006 14.2701 21.9641 14.1857 21.8572 14.0393C21.7504 13.893 21.7082 13.7368 21.7307 13.5705C21.7531 13.4044 21.8374 13.268 21.9838 13.1612L23.3893 12.1051C23.5356 11.9983 23.6919 11.9561 23.858 11.9785C24.0241 12.001 24.1606 12.0853 24.2676 12.2316C24.3744 12.378 24.4165 12.5342 24.394 12.7003C24.3717 12.8666 24.2873 13.0031 24.1409 13.1099ZM12.3749 20.1468H11.5255C11.1099 20.1468 10.755 19.9996 10.4607 19.7051C10.1663 19.4108 10.019 19.0559 10.019 18.6403V17.3583C10.019 16.9427 10.1663 16.5878 10.4607 16.2935C10.755 15.999 11.1099 15.8518 11.5255 15.8518H14.7468L17.338 14.3022C17.5891 14.1515 17.8423 14.1502 18.0976 14.2983C18.353 14.4462 18.4807 14.6638 18.4807 14.9512V21.0474C18.4807 21.3348 18.353 21.5524 18.0976 21.7003C17.8423 21.8484 17.5891 21.8471 17.338 21.6964L14.7468 20.1468H13.6249V22.7749C13.6249 22.9523 13.565 23.1008 13.4453 23.2203C13.3257 23.3401 13.1772 23.3999 12.9999 23.3999C12.8225 23.3999 12.674 23.3401 12.5545 23.2203C12.4347 23.1008 12.3749 22.9523 12.3749 22.7749V20.1468ZM17.2307 20.1533V15.8453L15.0928 17.1018H11.5255C11.4615 17.1018 11.4027 17.1285 11.3493 17.182C11.2958 17.2355 11.269 17.2942 11.269 17.3583V18.6403C11.269 18.7044 11.2958 18.7631 11.3493 18.8166C11.4027 18.8701 11.4615 18.8968 11.5255 18.8968H15.0928L17.2307 20.1533ZM19.6345 20.5987V15.3999C19.9614 15.6959 20.2247 16.0687 20.4245 16.5185C20.6243 16.9683 20.7243 17.4619 20.7243 17.9993C20.7243 18.5367 20.6243 19.0303 20.4245 19.4801C20.2247 19.9299 19.9614 20.3027 19.6345 20.5987Z" fill="#27682A"/>
</g>
</svg>
