<svg width="158" height="18" viewBox="0 0 158 18" fill="none" xmlns="http://www.w3.org/2000/svg">
<path d="M8.18998 10.2057C8.18998 10.9737 8.00398 11.6277 7.63198 12.1677C7.25998 12.7077 6.72598 13.1277 6.02998 13.4277C5.33398 13.7157 4.50598 13.8597 3.54598 13.8597C3.07798 13.8597 2.62798 13.8297 2.19598 13.7697C1.76398 13.7217 1.36198 13.6497 0.989976 13.5537C0.617976 13.4577 0.287976 13.3377 -2.44007e-05 13.1937V11.3577C0.479976 11.5737 1.04398 11.7717 1.69198 11.9517C2.33998 12.1197 2.99998 12.2037 3.67198 12.2037C4.24798 12.2037 4.72798 12.1257 5.11198 11.9697C5.49598 11.8137 5.78398 11.5977 5.97598 11.3217C6.16798 11.0457 6.26398 10.7217 6.26398 10.3497C6.26398 9.95369 6.16198 9.62369 5.95798 9.35969C5.76598 9.08369 5.45998 8.83169 5.03998 8.60369C4.63198 8.36369 4.07998 8.11169 3.38398 7.84769C2.90398 7.66769 2.46598 7.46969 2.06998 7.25369C1.68598 7.02569 1.34398 6.76169 1.04398 6.46169C0.755976 6.16169 0.533976 5.81369 0.377976 5.41769C0.221976 5.02169 0.143976 4.55969 0.143976 4.03169C0.143976 3.32369 0.317976 2.71769 0.665976 2.21369C1.02598 1.70969 1.51798 1.32569 2.14198 1.06169C2.76598 0.785687 3.49198 0.647687 4.31998 0.647687C5.01598 0.647687 5.65798 0.719687 6.24598 0.863687C6.84598 0.995687 7.41598 1.18169 7.95598 1.42169L7.34398 3.02369C6.85198 2.81969 6.35398 2.65169 5.84998 2.51969C5.34598 2.38769 4.81798 2.32169 4.26598 2.32169C3.78598 2.32169 3.38398 2.39369 3.05998 2.53769C2.73598 2.68169 2.48998 2.87969 2.32198 3.13169C2.16598 3.38369 2.08798 3.67769 2.08798 4.01369C2.08798 4.40969 2.17798 4.73969 2.35798 5.00369C2.53798 5.26769 2.82598 5.51369 3.22198 5.74169C3.61798 5.95769 4.13998 6.19769 4.78798 6.46169C5.50798 6.73769 6.11998 7.03769 6.62398 7.36169C7.13998 7.68569 7.52998 8.07569 7.79398 8.53169C8.05798 8.97569 8.18998 9.53369 8.18998 10.2057ZM14.2525 3.79769C15.4765 3.79769 16.3885 4.06769 16.9885 4.60769C17.5885 5.13569 17.8885 5.96969 17.8885 7.10969V13.6797H16.5385L16.1605 12.3297H16.0885C15.8125 12.6777 15.5245 12.9657 15.2245 13.1937C14.9365 13.4217 14.6005 13.5897 14.2165 13.6977C13.8445 13.8057 13.3885 13.8597 12.8485 13.8597C12.2725 13.8597 11.7505 13.7577 11.2825 13.5537C10.8265 13.3377 10.4665 13.0137 10.2025 12.5817C9.93846 12.1377 9.80646 11.5857 9.80646 10.9257C9.80646 9.94169 10.1785 9.19169 10.9225 8.67569C11.6785 8.15969 12.8245 7.87769 14.3605 7.82969L16.0165 7.77569V7.23569C16.0165 6.51569 15.8545 6.01169 15.5305 5.72369C15.2065 5.43569 14.7505 5.29169 14.1625 5.29169C13.6585 5.29169 13.1785 5.36369 12.7225 5.50769C12.2665 5.65169 11.8345 5.82569 11.4265 6.02969L10.8145 4.64369C11.2705 4.40369 11.7925 4.20569 12.3805 4.04969C12.9805 3.88169 13.6045 3.79769 14.2525 3.79769ZM14.7025 9.05369C13.5985 9.10169 12.8305 9.28769 12.3985 9.61169C11.9785 9.92369 11.7685 10.3677 11.7685 10.9437C11.7685 11.4477 11.9185 11.8137 12.2185 12.0417C12.5305 12.2697 12.9205 12.3837 13.3885 12.3837C14.1445 12.3837 14.7685 12.1737 15.2605 11.7537C15.7525 11.3337 15.9985 10.7037 15.9985 9.86369V9.01769L14.7025 9.05369ZM23.0044 13.6797L19.3324 3.97769H21.3484L23.3644 9.64769C23.4484 9.88769 23.5324 10.1577 23.6164 10.4577C23.7124 10.7577 23.7964 11.0457 23.8684 11.3217C23.9404 11.5977 23.9884 11.8377 24.0124 12.0417H24.0844C24.1204 11.8377 24.1744 11.5977 24.2464 11.3217C24.3304 11.0337 24.4204 10.7457 24.5164 10.4577C24.6124 10.1577 24.6964 9.88769 24.7684 9.64769L26.7844 3.97769H28.8004L25.1104 13.6797H23.0044ZM34.117 3.79769C34.969 3.79769 35.701 3.97769 36.313 4.33769C36.925 4.68569 37.393 5.18969 37.717 5.84969C38.053 6.50969 38.221 7.28969 38.221 8.18969V9.23369H31.705C31.729 10.2297 31.987 10.9917 32.479 11.5197C32.983 12.0477 33.685 12.3117 34.585 12.3117C35.209 12.3117 35.761 12.2577 36.241 12.1497C36.733 12.0297 37.237 11.8557 37.753 11.6277V13.2117C37.273 13.4277 36.781 13.5897 36.277 13.6977C35.785 13.8057 35.197 13.8597 34.513 13.8597C33.577 13.8597 32.749 13.6737 32.029 13.3017C31.309 12.9297 30.745 12.3777 30.337 11.6457C29.941 10.9017 29.743 9.98969 29.743 8.90969C29.743 7.81769 29.923 6.89369 30.283 6.13769C30.655 5.38169 31.165 4.80569 31.813 4.40969C32.473 4.00169 33.241 3.79769 34.117 3.79769ZM34.117 5.27369C33.433 5.27369 32.881 5.49569 32.461 5.93969C32.053 6.38369 31.813 7.01369 31.741 7.82969H36.313C36.313 7.32569 36.235 6.88169 36.079 6.49769C35.923 6.11369 35.683 5.81369 35.359 5.59769C35.035 5.38169 34.621 5.27369 34.117 5.27369ZM48.7696 12.3117C49.0216 12.3117 49.2796 12.2877 49.5436 12.2397C49.8076 12.1917 50.0356 12.1377 50.2276 12.0777V13.5177C50.0236 13.6137 49.7476 13.6917 49.3996 13.7517C49.0516 13.8237 48.7036 13.8597 48.3556 13.8597C47.8276 13.8597 47.3416 13.7697 46.8976 13.5897C46.4656 13.4097 46.1176 13.0977 45.8536 12.6537C45.5896 12.2097 45.4576 11.5917 45.4576 10.7997V5.43569H44.1076V4.57169L45.5296 3.85169L46.1956 1.79969H47.3656V3.97769H50.1376V5.43569H47.3656V10.7637C47.3656 11.2917 47.4916 11.6817 47.7436 11.9337C48.0076 12.1857 48.3496 12.3117 48.7696 12.3117ZM60.7182 8.81969C60.7182 9.62369 60.6102 10.3377 60.3942 10.9617C60.1782 11.5857 59.8722 12.1137 59.4762 12.5457C59.0802 12.9777 58.6002 13.3077 58.0362 13.5357C57.4722 13.7517 56.8362 13.8597 56.1282 13.8597C55.4802 13.8597 54.8802 13.7517 54.3282 13.5357C53.7762 13.3077 53.2962 12.9777 52.8882 12.5457C52.4922 12.1137 52.1802 11.5857 51.9522 10.9617C51.7242 10.3377 51.6102 9.61769 51.6102 8.80169C51.6102 7.73369 51.7902 6.82769 52.1502 6.08369C52.5222 5.33969 53.0502 4.77569 53.7342 4.39169C54.4302 3.99569 55.2462 3.79769 56.1822 3.79769C57.0702 3.79769 57.8502 3.99569 58.5222 4.39169C59.2062 4.77569 59.7402 5.33969 60.1242 6.08369C60.5202 6.82769 60.7182 7.73969 60.7182 8.81969ZM53.5722 8.81969C53.5722 9.53969 53.6622 10.1637 53.8422 10.6917C54.0222 11.2077 54.3042 11.6037 54.6882 11.8797C55.0722 12.1557 55.5642 12.2937 56.1642 12.2937C56.7642 12.2937 57.2562 12.1557 57.6402 11.8797C58.0242 11.6037 58.3062 11.2077 58.4862 10.6917C58.6662 10.1637 58.7562 9.53969 58.7562 8.81969C58.7562 8.07569 58.6602 7.45169 58.4682 6.94769C58.2882 6.44369 58.0062 6.05969 57.6222 5.79569C57.2502 5.51969 56.7582 5.38169 56.1462 5.38169C55.2462 5.38169 54.5922 5.68169 54.1842 6.28169C53.7762 6.88169 53.5722 7.72769 53.5722 8.81969ZM78.4327 7.12769C78.4327 8.56769 78.1627 9.77369 77.6227 10.7457C77.0827 11.7177 76.3027 12.4497 75.2827 12.9417C74.2747 13.4337 73.0567 13.6797 71.6287 13.6797H68.0287V0.827687H72.0067C73.3147 0.827687 74.4487 1.06769 75.4087 1.54769C76.3687 2.02769 77.1127 2.73569 77.6407 3.67169C78.1687 4.59569 78.4327 5.74769 78.4327 7.12769ZM76.3987 7.18169C76.3987 6.10169 76.2247 5.21369 75.8767 4.51769C75.5287 3.82169 75.0127 3.30569 74.3287 2.96969C73.6567 2.63369 72.8407 2.46569 71.8807 2.46569H69.9727V12.0417H71.5387C73.1587 12.0417 74.3707 11.6337 75.1747 10.8177C75.9907 10.0017 76.3987 8.78969 76.3987 7.18169ZM82.9219 3.97769V13.6797H81.0139V3.97769H82.9219ZM81.9859 0.287687C82.2739 0.287687 82.5259 0.371687 82.7419 0.539687C82.9579 0.707687 83.0659 0.989687 83.0659 1.38569C83.0659 1.76969 82.9579 2.05169 82.7419 2.23169C82.5259 2.39969 82.2739 2.48369 81.9859 2.48369C81.6739 2.48369 81.4099 2.39969 81.1939 2.23169C80.9899 2.05169 80.8879 1.76969 80.8879 1.38569C80.8879 0.989687 80.9899 0.707687 81.1939 0.539687C81.4099 0.371687 81.6739 0.287687 81.9859 0.287687ZM89.2662 3.79769C89.8902 3.79769 90.4542 3.91769 90.9582 4.15769C91.4622 4.39769 91.8882 4.76369 92.2362 5.25569H92.3262L92.5422 3.97769H94.0902V13.8057C94.0902 14.7177 93.9282 15.4857 93.6042 16.1097C93.2802 16.7337 92.7822 17.2017 92.1102 17.5137C91.4502 17.8377 90.6162 17.9997 89.6082 17.9997C88.9122 17.9997 88.2702 17.9517 87.6822 17.8557C87.0942 17.7597 86.5542 17.6097 86.0622 17.4057V15.7317C86.4102 15.8997 86.7762 16.0377 87.1602 16.1457C87.5442 16.2657 87.9522 16.3497 88.3842 16.3977C88.8162 16.4577 89.2602 16.4877 89.7162 16.4877C90.5082 16.4877 91.1202 16.2597 91.5522 15.8037C91.9842 15.3597 92.2002 14.7297 92.2002 13.9137V13.5897C92.2002 13.4337 92.2062 13.2297 92.2182 12.9777C92.2302 12.7137 92.2422 12.5217 92.2542 12.4017H92.1822C91.8462 12.9057 91.4322 13.2777 90.9402 13.5177C90.4602 13.7457 89.9022 13.8597 89.2662 13.8597C88.0422 13.8597 87.0822 13.4217 86.3862 12.5457C85.7022 11.6577 85.3602 10.4277 85.3602 8.85569C85.3602 7.79969 85.5162 6.89969 85.8282 6.15569C86.1402 5.39969 86.5842 4.81769 87.1602 4.40969C87.7482 4.00169 88.4502 3.79769 89.2662 3.79769ZM89.6622 5.38169C89.1582 5.38169 88.7322 5.51969 88.3842 5.79569C88.0362 6.05969 87.7722 6.44969 87.5922 6.96569C87.4122 7.48169 87.3222 8.11769 87.3222 8.87369C87.3222 10.0017 87.5202 10.8597 87.9162 11.4477C88.3242 12.0357 88.9182 12.3297 89.6982 12.3297C90.1542 12.3297 90.5382 12.2697 90.8502 12.1497C91.1742 12.0297 91.4382 11.8437 91.6422 11.5917C91.8582 11.3397 92.0142 11.0217 92.1102 10.6377C92.2182 10.2417 92.2722 9.76769 92.2722 9.21569V8.85569C92.2722 8.02769 92.1762 7.36169 91.9842 6.85769C91.8042 6.34169 91.5222 5.96969 91.1382 5.74169C90.7542 5.50169 90.2622 5.38169 89.6622 5.38169ZM98.9883 3.97769V13.6797H97.0803V3.97769H98.9883ZM98.0523 0.287687C98.3403 0.287687 98.5923 0.371687 98.8083 0.539687C99.0243 0.707687 99.1323 0.989687 99.1323 1.38569C99.1323 1.76969 99.0243 2.05169 98.8083 2.23169C98.5923 2.39969 98.3403 2.48369 98.0523 2.48369C97.7403 2.48369 97.4763 2.39969 97.2603 2.23169C97.0563 2.05169 96.9543 1.76969 96.9543 1.38569C96.9543 0.989687 97.0563 0.707687 97.2603 0.539687C97.4763 0.371687 97.7403 0.287687 98.0523 0.287687ZM102.201 13.6797V0.827687H104.145V12.0057H109.635V13.6797H102.201ZM120.185 8.81969C120.185 9.62369 120.077 10.3377 119.861 10.9617C119.645 11.5857 119.339 12.1137 118.943 12.5457C118.547 12.9777 118.067 13.3077 117.503 13.5357C116.939 13.7517 116.303 13.8597 115.595 13.8597C114.947 13.8597 114.347 13.7517 113.795 13.5357C113.243 13.3077 112.763 12.9777 112.355 12.5457C111.959 12.1137 111.647 11.5857 111.419 10.9617C111.191 10.3377 111.077 9.61769 111.077 8.80169C111.077 7.73369 111.257 6.82769 111.617 6.08369C111.989 5.33969 112.517 4.77569 113.201 4.39169C113.897 3.99569 114.713 3.79769 115.649 3.79769C116.537 3.79769 117.317 3.99569 117.989 4.39169C118.673 4.77569 119.207 5.33969 119.591 6.08369C119.987 6.82769 120.185 7.73969 120.185 8.81969ZM113.039 8.81969C113.039 9.53969 113.129 10.1637 113.309 10.6917C113.489 11.2077 113.771 11.6037 114.155 11.8797C114.539 12.1557 115.031 12.2937 115.631 12.2937C116.231 12.2937 116.723 12.1557 117.107 11.8797C117.491 11.6037 117.773 11.2077 117.953 10.6917C118.133 10.1637 118.223 9.53969 118.223 8.81969C118.223 8.07569 118.127 7.45169 117.935 6.94769C117.755 6.44369 117.473 6.05969 117.089 5.79569C116.717 5.51969 116.225 5.38169 115.613 5.38169C114.713 5.38169 114.059 5.68169 113.651 6.28169C113.243 6.88169 113.039 7.72769 113.039 8.81969ZM126.51 13.8597C125.622 13.8597 124.842 13.6857 124.17 13.3377C123.498 12.9897 122.976 12.4497 122.604 11.7177C122.232 10.9737 122.046 10.0317 122.046 8.89169C122.046 7.69169 122.244 6.71969 122.64 5.97569C123.048 5.23169 123.594 4.68569 124.278 4.33769C124.974 3.97769 125.766 3.79769 126.654 3.79769C127.194 3.79769 127.698 3.85769 128.166 3.97769C128.646 4.08569 129.042 4.21169 129.354 4.35569L128.778 5.90369C128.442 5.77169 128.082 5.65769 127.698 5.56169C127.326 5.46569 126.972 5.41769 126.636 5.41769C126.036 5.41769 125.538 5.54969 125.142 5.81369C124.758 6.06569 124.47 6.44969 124.278 6.96569C124.098 7.46969 124.008 8.10569 124.008 8.87369C124.008 9.60569 124.104 10.2237 124.296 10.7277C124.488 11.2317 124.77 11.6157 125.142 11.8797C125.526 12.1317 126 12.2577 126.564 12.2577C127.104 12.2577 127.578 12.1977 127.986 12.0777C128.394 11.9577 128.778 11.8017 129.138 11.6097V13.2657C128.79 13.4697 128.412 13.6197 128.004 13.7157C127.596 13.8117 127.098 13.8597 126.51 13.8597ZM133.318 6.83969C133.318 7.09169 133.306 7.37969 133.282 7.70369C133.27 8.02769 133.252 8.32769 133.228 8.60369H133.282C133.378 8.48369 133.492 8.33969 133.624 8.17169C133.768 7.99169 133.912 7.81169 134.056 7.63169C134.2 7.45169 134.332 7.29569 134.452 7.16369L137.422 3.97769H139.636L135.73 8.13569L139.888 13.6797H137.638L134.434 9.34169L133.318 10.2777V13.6797H131.428V-0.000313401H133.318V6.83969ZM145.299 3.79769C146.151 3.79769 146.883 3.97769 147.495 4.33769C148.107 4.68569 148.575 5.18969 148.899 5.84969C149.235 6.50969 149.403 7.28969 149.403 8.18969V9.23369H142.887C142.911 10.2297 143.169 10.9917 143.661 11.5197C144.165 12.0477 144.867 12.3117 145.767 12.3117C146.391 12.3117 146.943 12.2577 147.423 12.1497C147.915 12.0297 148.419 11.8557 148.935 11.6277V13.2117C148.455 13.4277 147.963 13.5897 147.459 13.6977C146.967 13.8057 146.379 13.8597 145.695 13.8597C144.759 13.8597 143.931 13.6737 143.211 13.3017C142.491 12.9297 141.927 12.3777 141.519 11.6457C141.123 10.9017 140.925 9.98969 140.925 8.90969C140.925 7.81769 141.105 6.89369 141.465 6.13769C141.837 5.38169 142.347 4.80569 142.995 4.40969C143.655 4.00169 144.423 3.79769 145.299 3.79769ZM145.299 5.27369C144.615 5.27369 144.063 5.49569 143.643 5.93969C143.235 6.38369 142.995 7.01369 142.923 7.82969H147.495C147.495 7.32569 147.417 6.88169 147.261 6.49769C147.105 6.11369 146.865 5.81369 146.541 5.59769C146.217 5.38169 145.803 5.27369 145.299 5.27369ZM156.571 3.79769C156.739 3.79769 156.925 3.80969 157.129 3.83369C157.333 3.84569 157.501 3.86369 157.633 3.88769L157.435 5.66969C157.303 5.63369 157.147 5.60369 156.967 5.57969C156.787 5.55569 156.619 5.54369 156.463 5.54369C156.103 5.54369 155.755 5.61569 155.419 5.75969C155.095 5.89169 154.801 6.08969 154.537 6.35369C154.273 6.60569 154.063 6.91769 153.907 7.28969C153.763 7.66169 153.691 8.08769 153.691 8.56769V13.6797H151.783V3.97769H153.295L153.547 5.70569H153.619C153.823 5.35769 154.069 5.03969 154.357 4.75169C154.645 4.46369 154.975 4.23569 155.347 4.06769C155.719 3.88769 156.127 3.79769 156.571 3.79769Z" fill="#602EF9"/>
</svg>
