<svg width="20" height="20" viewBox="0 0 20 20" fill="none" xmlns="http://www.w3.org/2000/svg">
<mask id="mask0_3756_8265" style="mask-type:alpha" maskUnits="userSpaceOnUse" x="0" y="0" width="20" height="20">
<rect width="20" height="20" fill="#D9D9D9"/>
</mask>
<g mask="url(#mask0_3756_8265)">
<path d="M3.29159 11.0535C3.3161 9.45378 4.28092 6.51965 7.94332 7.58328L9.78931 8.24776L9.64147 8.91224C10.6751 8.61657 12.846 8.61657 13.2595 10.9796C14.6379 11.669 16.464 13.6523 12.7429 16.0744L3.95607 15.9266C1.29778 14.9668 1.29778 12.0133 3.29159 11.0535Z" fill="white"/>
<path d="M5.8732 1.70073C5.57947 1.77854 5.32076 1.97228 5.1986 2.20492L5.14336 2.31152L5.13791 4.81965C5.13402 6.61467 5.12858 7.33556 5.11379 7.35501C5.10251 7.36863 5.02859 7.41725 4.95118 7.46161C4.44854 7.74833 3.92723 8.2603 3.58176 8.80106C3.38024 9.11696 3.19156 9.6052 3.11764 10.0028C3.09741 10.1113 3.07485 10.3265 3.06979 10.4813L3.05851 10.7626L2.89939 10.8692C2.69631 11.005 2.18628 11.5321 2.05868 11.7375C1.8808 12.0204 1.7573 12.334 1.69454 12.6623C1.65369 12.8716 1.65953 13.7788 1.69999 13.9706C1.77001 14.2982 1.89451 14.6008 2.06413 14.872C2.17695 15.0502 2.68347 15.5832 2.85154 15.6995C3.11025 15.8761 3.33005 15.9788 3.61678 16.0601C3.78679 16.1068 3.8183 16.1084 4.46099 16.1161L5.12858 16.1259L5.12663 16.8744L5.12469 17.6244L5.18577 17.7505C5.21922 17.8201 5.26357 17.8975 5.28731 17.9248C5.36122 18.0104 5.511 18.1321 5.5962 18.1769C5.6425 18.2002 5.69229 18.2251 5.70902 18.2352C5.72536 18.2446 5.82184 18.2699 5.92144 18.2932L6.10428 18.3337L11.8523 18.3278L17.6004 18.3224L17.7295 18.2815C17.9163 18.2232 18.0917 18.1263 18.1952 18.0236C18.2823 17.9365 18.3858 17.8046 18.3858 17.7793C18.3858 17.7734 18.4022 17.7287 18.4228 17.6824C18.4597 17.5992 18.4597 17.5505 18.4597 12.6521C18.4597 9.93277 18.4558 7.6997 18.4504 7.69036C18.445 7.68258 16.8553 7.67869 14.9168 7.68647C11.7928 7.69425 11.3882 7.6923 11.368 7.66702C11.3497 7.64367 11.3438 7.00215 11.3403 4.6547L11.3349 1.67155L8.67349 1.66766C6.12841 1.66572 6.00625 1.66572 5.8732 1.70073ZM7.03759 7.46744C7.32781 7.5044 7.47759 7.53902 7.71607 7.62267C8.47197 7.88994 9.07615 8.40541 9.50526 9.15159C9.52159 9.18076 9.53093 9.18076 9.61807 9.13602C9.71922 9.08389 9.94681 9.00842 10.1612 8.9559C10.3553 8.90766 10.921 8.90766 11.1314 8.9559C11.4714 9.03371 11.808 9.18076 12.0924 9.38073C12.2869 9.51417 12.6195 9.86508 12.7506 10.0744C12.9241 10.3479 13.0556 10.6579 13.1311 10.9661C13.1459 11.0264 13.1645 11.0439 13.3178 11.1252C13.7731 11.3695 14.1374 11.7543 14.3566 12.2223C14.56 12.6541 14.6448 13.1797 14.5822 13.6022C14.4581 14.4378 14.0126 15.0988 13.3272 15.4649C13.1443 15.5622 12.8782 15.6571 12.6658 15.6995C12.4771 15.7364 4.00659 15.7364 3.86809 15.6995C3.41681 15.5773 3.12892 15.4244 2.81263 15.1373C2.53914 14.8895 2.32634 14.5693 2.18045 14.1877C2.05673 13.864 2.03845 13.7457 2.03845 13.2824C2.04001 12.8638 2.0439 12.8272 2.13454 12.5265C2.30455 11.9643 2.75545 11.408 3.26197 11.1349L3.41525 11.0532V10.84C3.41525 9.9425 3.76656 9.06639 4.38007 8.43264C4.64072 8.16148 4.9325 7.93273 5.1064 7.86076C5.14686 7.84364 5.23401 7.8024 5.30053 7.76972C5.6114 7.61658 5.9454 7.51576 6.28908 7.47133C6.53709 7.43403 6.7892 7.43272 7.03759 7.46744Z" fill="#602EF9"/>
<path d="M7.39513 11.0606C7.16598 11.1462 7.01465 11.373 7.01465 11.6286C7.01465 11.7453 7.0236 11.7842 7.07728 11.8943C7.13642 12.0165 7.15315 12.0344 7.33989 12.1737C7.36945 12.197 7.36206 12.2398 7.21423 12.8288C7.12708 13.1758 7.05705 13.4707 7.05705 13.482C7.05705 13.5015 7.17338 13.5073 7.58187 13.5073H8.10707L8.01603 13.133C7.96429 12.9296 7.89037 12.6331 7.85186 12.476L7.78144 12.1912L7.85925 12.1426C8.1697 11.9527 8.23428 11.5146 7.99775 11.2314C7.85186 11.0571 7.59859 10.9852 7.39513 11.0606ZM12.2036 1.71011C12.1978 1.71984 12.192 2.90018 12.1885 4.33845C12.1846 6.63533 12.1865 6.95123 12.2106 6.9629C12.2495 6.98235 18.3469 6.97068 18.3469 6.95123C18.3469 6.94151 18.3119 6.90844 18.2691 6.87576C18.1512 6.78149 18.0353 6.6846 17.9217 6.58515C17.7739 6.4591 17.5241 6.24785 17.3693 6.11402C17.2121 5.98019 17.0121 5.80979 16.9238 5.73588C16.8351 5.6604 16.5356 5.40442 16.2586 5.16399C15.9708 4.91506 15.6818 4.66762 15.3914 4.42171C15.1918 4.25325 15.0125 4.09997 14.9923 4.08247C14.972 4.06301 14.8685 3.97587 14.7612 3.88483C14.5193 3.67991 14.279 3.47319 14.0403 3.26471C13.9944 3.22386 13.9018 3.14411 13.8353 3.08614C13.7687 3.03012 13.6061 2.8924 13.4766 2.77997C13.3474 2.66753 13.142 2.49325 13.0222 2.39248C12.4083 1.87273 12.2659 1.74863 12.2659 1.73501C12.2659 1.71167 12.2141 1.69222 12.2029 1.71011" fill="#602EF9"/>
</g>
</svg>
