<svg width="16" height="16" viewBox="0 0 16 16" fill="none" xmlns="http://www.w3.org/2000/svg">
<mask id="mask0_3978_3025" style="mask-type:alpha" maskUnits="userSpaceOnUse" x="0" y="0" width="16" height="16">
<rect width="16" height="16" fill="#D9D9D9"/>
</mask>
<g mask="url(#mask0_3978_3025)">
<path d="M6.49985 7.83367H9.16651V8.5785C9.16651 8.70839 9.22357 8.79795 9.33768 8.84717C9.45179 8.89628 9.55585 8.87384 9.64985 8.77984L10.719 7.7105C10.8268 7.60172 10.8807 7.47478 10.8807 7.32967C10.8807 7.18445 10.826 7.05745 10.7165 6.94867L9.64985 5.8875C9.55585 5.7935 9.45179 5.76984 9.33768 5.8165C9.22357 5.86317 9.16651 5.95178 9.16651 6.08234V6.83367H6.10235C5.93168 6.83367 5.78857 6.89139 5.67301 7.00684C5.55757 7.12239 5.49985 7.2655 5.49985 7.43617V9.33367C5.49985 9.47534 5.54779 9.59406 5.64368 9.68984C5.73957 9.78572 5.85835 9.83367 6.00001 9.83367C6.14179 9.83367 6.26051 9.78572 6.35618 9.68984C6.45196 9.59406 6.49985 9.47534 6.49985 9.33367V7.83367ZM8.00118 14.2438C7.85074 14.2438 7.70252 14.2137 7.55651 14.1535C7.41051 14.0933 7.27713 14.0029 7.15635 13.8823L2.11785 8.84384C1.99729 8.72361 1.9069 8.59078 1.84668 8.44534C1.78646 8.29989 1.75635 8.152 1.75635 8.00167C1.75635 7.85122 1.78646 7.703 1.84668 7.557C1.9069 7.411 1.99729 7.27761 2.11785 7.15684L7.15635 2.11834C7.27657 1.99778 7.4094 1.90739 7.55485 1.84717C7.70029 1.78695 7.84818 1.75684 7.99852 1.75684C8.14896 1.75684 8.29718 1.78695 8.44318 1.84717C8.58918 1.90739 8.72257 1.99778 8.84335 2.11834L13.8818 7.15684C14.0024 7.27706 14.0928 7.40989 14.153 7.55534C14.2132 7.70078 14.2433 7.84867 14.2433 7.999C14.2433 8.14945 14.2132 8.29767 14.153 8.44367C14.0928 8.58967 14.0024 8.72306 13.8818 8.84384L8.84335 13.8823C8.72313 14.0029 8.59029 14.0933 8.44485 14.1535C8.2994 14.2137 8.15152 14.2438 8.00118 14.2438ZM7.85885 13.1927C7.89729 13.2311 7.94429 13.2503 7.99985 13.2503C8.0554 13.2503 8.1024 13.2311 8.14085 13.1927L13.1922 8.14134C13.2306 8.10289 13.2498 8.05589 13.2498 8.00034C13.2498 7.94478 13.2306 7.89778 13.1922 7.85934L8.14085 2.808C8.1024 2.76956 8.0554 2.75034 7.99985 2.75034C7.94429 2.75034 7.89729 2.76956 7.85885 2.808L2.80751 7.85934C2.76907 7.89778 2.74985 7.94478 2.74985 8.00034C2.74985 8.05589 2.76907 8.10289 2.80751 8.14134L7.85885 13.1927Z" fill="white"/>
</g>
</svg>
