<svg width="36" height="36" viewBox="0 0 36 36" fill="none" xmlns="http://www.w3.org/2000/svg">
<path d="M0 4C0 1.79086 1.79086 0 4 0H32C34.2091 0 36 1.79086 36 4V32C36 34.2091 34.2091 36 32 36H4C1.79086 36 0 34.2091 0 32V4Z" fill="#E8F0FE"/>
<mask id="mask0_2777_53863" style="mask-type:alpha" maskUnits="userSpaceOnUse" x="8" y="8" width="20" height="20">
<rect x="8" y="8" width="20" height="20" fill="#D9D9D9"/>
</mask>
<g mask="url(#mask0_2777_53863)">
<path d="M13.3702 22.0265C13.1245 21.8898 12.9319 21.7054 12.7925 21.4732C12.653 21.2409 12.5833 20.9804 12.5833 20.6917V17.0763L10.92 16.1565C10.7832 16.0784 10.6827 15.9835 10.6187 15.8717C10.5545 15.76 10.5225 15.6359 10.5225 15.4992C10.5225 15.3625 10.5545 15.2384 10.6187 15.1269C10.6827 15.0152 10.7832 14.9204 10.92 14.8423L17.2825 11.3757C17.3954 11.3129 17.5111 11.2668 17.6298 11.2373C17.7484 11.208 17.8718 11.1934 18 11.1934C18.1282 11.1934 18.2516 11.208 18.3702 11.2373C18.4888 11.2668 18.6047 11.3128 18.7179 11.3754L25.9037 15.2863C26.0319 15.3557 26.1302 15.4496 26.1987 15.5679C26.267 15.6864 26.3012 15.8142 26.3012 15.9513V20.8679C26.3012 21.045 26.2413 21.1935 26.1214 21.3134C26.0016 21.4331 25.8531 21.4929 25.676 21.4929C25.4988 21.4929 25.3504 21.4331 25.2308 21.3134C25.1111 21.1935 25.0512 21.045 25.0512 20.8679V16.1917L23.4166 17.0763V20.6917C23.4166 20.9804 23.3469 21.2409 23.2075 21.4732C23.068 21.7054 22.8754 21.8898 22.6298 22.0265L18.7195 24.1404C18.6052 24.2045 18.4888 24.2512 18.3702 24.2807C18.2516 24.31 18.1282 24.3246 18 24.3246C17.8718 24.3246 17.7484 24.31 17.6298 24.2807C17.5111 24.2512 17.3947 24.2045 17.2804 24.1404L13.3702 22.0265ZM17.9037 18.5346C17.9412 18.556 17.9746 18.5667 18.0039 18.5667C18.0334 18.5667 18.0668 18.556 18.1041 18.5346L23.7004 15.4994L18.1041 12.4721C18.0668 12.4507 18.0334 12.44 18.0039 12.44C17.9746 12.44 17.9412 12.4507 17.9037 12.4721L12.2995 15.4994L17.9037 18.5346ZM17.8958 23.0586C17.9332 23.08 17.9679 23.0907 18 23.0907C18.032 23.0907 18.0668 23.08 18.1041 23.0586L22.0464 20.9288C22.0892 20.9021 22.1199 20.8714 22.1385 20.8367C22.1573 20.802 22.1666 20.7579 22.1666 20.7044V17.7429L18.7323 19.6292C18.6179 19.6932 18.4994 19.74 18.3766 19.7694C18.2537 19.7988 18.1282 19.8136 18 19.8136C17.8718 19.8136 17.7462 19.7988 17.6233 19.7694C17.5005 19.74 17.382 19.6932 17.2677 19.6292L13.8333 17.7429V20.7044C13.8333 20.7472 13.8427 20.7886 13.8614 20.8288C13.88 20.8688 13.9107 20.9021 13.9535 20.9288L17.8958 23.0586Z" fill="#1558B0"/>
</g>
</svg>
