<svg width="20" height="20" viewBox="0 0 20 20" fill="none" xmlns="http://www.w3.org/2000/svg">
<mask id="mask0_4514_16626" style="mask-type:alpha" maskUnits="userSpaceOnUse" x="0" y="0" width="20" height="20">
<rect width="20" height="20" fill="#D9D9D9"/>
</mask>
<g mask="url(#mask0_4514_16626)">
<path d="M5.37017 14.0265C5.12447 13.8898 4.93191 13.7054 4.79246 13.4732C4.65302 13.2409 4.58329 12.9804 4.58329 12.6917V9.07628L2.91996 8.15648C2.78316 8.07843 2.68274 7.9835 2.61871 7.87169C2.55454 7.76003 2.52246 7.63586 2.52246 7.49919C2.52246 7.36253 2.55454 7.23843 2.61871 7.1269C2.68274 7.01523 2.78316 6.92037 2.91996 6.84232L9.28246 3.37565C9.39538 3.31287 9.51114 3.26676 9.62975 3.23732C9.74836 3.20801 9.87177 3.19336 9.99996 3.19336C10.1282 3.19336 10.2516 3.20801 10.3702 3.23732C10.4888 3.26676 10.6047 3.3128 10.7179 3.37544L17.9037 7.28628C18.0319 7.35572 18.1302 7.44961 18.1987 7.56794C18.267 7.68641 18.3012 7.81419 18.3012 7.95128V12.8679C18.3012 13.045 18.2413 13.1935 18.1214 13.3134C18.0016 13.4331 17.8531 13.4929 17.676 13.4929C17.4988 13.4929 17.3504 13.4331 17.2308 13.3134C17.1111 13.1935 17.0512 13.045 17.0512 12.8679V8.19169L15.4166 9.07628V12.6917C15.4166 12.9804 15.3469 13.2409 15.2075 13.4732C15.068 13.7054 14.8754 13.8898 14.6298 14.0265L10.7195 16.1404C10.6052 16.2045 10.4888 16.2512 10.3702 16.2807C10.2516 16.31 10.1282 16.3246 9.99996 16.3246C9.87177 16.3246 9.74836 16.31 9.62975 16.2807C9.51114 16.2512 9.39468 16.2045 9.28038 16.1404L5.37017 14.0265ZM9.90371 10.5346C9.94121 10.556 9.97461 10.5667 10.0039 10.5667C10.0334 10.5667 10.0668 10.556 10.1041 10.5346L15.7004 7.4994L10.1041 4.47211C10.0668 4.45072 10.0334 4.44003 10.0039 4.44003C9.97461 4.44003 9.94121 4.45072 9.90371 4.47211L4.29954 7.4994L9.90371 10.5346ZM9.89579 15.0586C9.93315 15.08 9.96788 15.0907 9.99996 15.0907C10.032 15.0907 10.0668 15.08 10.1041 15.0586L14.0464 12.9288C14.0892 12.9021 14.1199 12.8714 14.1385 12.8367C14.1573 12.802 14.1666 12.7579 14.1666 12.7044V9.74294L10.7323 11.6292C10.6179 11.6932 10.4994 11.74 10.3766 11.7694C10.2537 11.7988 10.1282 11.8136 9.99996 11.8136C9.87177 11.8136 9.74621 11.7988 9.62329 11.7694C9.50052 11.74 9.38198 11.6932 9.26767 11.6292L5.83329 9.74294V12.7044C5.83329 12.7472 5.84267 12.7886 5.86142 12.8288C5.88003 12.8688 5.91072 12.9021 5.9535 12.9288L9.89579 15.0586Z" fill="#1558B0"/>
</g>
</svg>
