<svg width="40" height="40" viewBox="0 0 40 40" fill="none" xmlns="http://www.w3.org/2000/svg">
<path d="M6 0.5H34C37.0376 0.5 39.5 2.96243 39.5 6V34C39.5 37.0376 37.0376 39.5 34 39.5H6C2.96243 39.5 0.5 37.0376 0.5 34V6C0.5 2.96243 2.96243 0.5 6 0.5Z" fill="#E5EFF9"/>
<path d="M6 0.5H34C37.0376 0.5 39.5 2.96243 39.5 6V34C39.5 37.0376 37.0376 39.5 34 39.5H6C2.96243 39.5 0.5 37.0376 0.5 34V6C0.5 2.96243 2.96243 0.5 6 0.5Z" stroke="#9CBFE3"/>
<path d="M22 21.5H24.5L25.5 17.5H22V15.5C22 14.47 22 13.5 24 13.5H25.5V10.14C25.174 10.097 23.943 10 22.643 10C19.928 10 18 11.657 18 14.7V17.5H15V21.5H18V30H22V21.5Z" fill="#003366"/>
</svg>
