<svg width="16" height="16" viewBox="0 0 16 16" fill="none" xmlns="http://www.w3.org/2000/svg">
<mask id="mask0_3978_10009" style="mask-type:alpha" maskUnits="userSpaceOnUse" x="0" y="0" width="16" height="16">
<rect width="16" height="16" fill="#D9D9D9"/>
</mask>
<g mask="url(#mask0_3978_10009)">
<path d="M11.0743 8.50022H3.5C3.35811 8.50022 3.23933 8.45233 3.14367 8.35655C3.04789 8.26088 3 8.14211 3 8.00022C3 7.85833 3.04789 7.73955 3.14367 7.64388C3.23933 7.54811 3.35811 7.50022 3.5 7.50022H11.0743L8.8795 5.30538C8.78039 5.20616 8.73145 5.0901 8.73267 4.95722C8.734 4.82433 8.78295 4.70616 8.8795 4.60272C8.98295 4.49938 9.10172 4.44599 9.23583 4.44255C9.37006 4.4391 9.48889 4.4891 9.59233 4.59255L12.5782 7.57838C12.6406 7.64083 12.6846 7.70666 12.7102 7.77588C12.7358 7.84511 12.7487 7.91988 12.7487 8.00022C12.7487 8.08055 12.7358 8.15533 12.7102 8.22455C12.6846 8.29377 12.6406 8.35961 12.5782 8.42205L9.59233 11.4079C9.49311 11.507 9.37539 11.5559 9.23917 11.5547C9.10283 11.5534 8.98295 11.5011 8.8795 11.3977C8.78295 11.2943 8.73295 11.1772 8.7295 11.0464C8.72606 10.9156 8.77606 10.7985 8.8795 10.6951L11.0743 8.50022Z" fill="white"/>
</g>
</svg>
