<svg width="20" height="20" viewBox="0 0 20 20" fill="none" xmlns="http://www.w3.org/2000/svg">
<mask id="mask0_2777_53916" style="mask-type:alpha" maskUnits="userSpaceOnUse" x="0" y="0" width="20" height="20">
<rect width="20" height="20" fill="#D9D9D9"/>
</mask>
<g mask="url(#mask0_2777_53916)">
<path d="M4.79158 13.5419V8.5419C4.79158 8.36482 4.85151 8.21634 4.97137 8.09648C5.09123 7.97676 5.2397 7.9169 5.41678 7.9169C5.59401 7.9169 5.74248 7.97676 5.8622 8.09648C5.98178 8.21634 6.04158 8.36482 6.04158 8.5419V13.5419C6.04158 13.719 5.98165 13.8675 5.86178 13.9873C5.74192 14.107 5.59345 14.1669 5.41637 14.1669C5.23915 14.1669 5.09074 14.107 4.97116 13.9873C4.85144 13.8675 4.79158 13.719 4.79158 13.5419ZM9.37491 13.5419V8.5419C9.37491 8.36482 9.43484 8.21634 9.5547 8.09648C9.67456 7.97676 9.82303 7.9169 10.0001 7.9169C10.1773 7.9169 10.3257 7.97676 10.4453 8.09648C10.565 8.21634 10.6249 8.36482 10.6249 8.5419V13.5419C10.6249 13.719 10.565 13.8675 10.4451 13.9873C10.3253 14.107 10.1768 14.1669 9.9997 14.1669C9.82248 14.1669 9.67408 14.107 9.55449 13.9873C9.43477 13.8675 9.37491 13.719 9.37491 13.5419ZM2.93262 17.0836C2.75553 17.0836 2.60713 17.0236 2.48741 16.9038C2.36755 16.7839 2.30762 16.6354 2.30762 16.4584C2.30762 16.2811 2.36755 16.1327 2.48741 16.0132C2.60713 15.8934 2.75553 15.8336 2.93262 15.8336H17.0672C17.2443 15.8336 17.3927 15.8935 17.5124 16.0134C17.6323 16.1332 17.6922 16.2817 17.6922 16.4588C17.6922 16.636 17.6323 16.7844 17.5124 16.904C17.3927 17.0237 17.2443 17.0836 17.0672 17.0836H2.93262ZM13.9582 13.5419V8.5419C13.9582 8.36482 14.0182 8.21634 14.138 8.09648C14.2579 7.97676 14.4064 7.9169 14.5835 7.9169C14.7607 7.9169 14.9091 7.97676 15.0287 8.09648C15.1484 8.21634 15.2082 8.36482 15.2082 8.5419V13.5419C15.2082 13.719 15.1483 13.8675 15.0285 13.9873C14.9086 14.107 14.7601 14.1669 14.583 14.1669C14.4058 14.1669 14.2573 14.107 14.1376 13.9873C14.018 13.8675 13.9582 13.719 13.9582 13.5419ZM17.0993 6.25023H2.84137C2.69303 6.25023 2.56699 6.19843 2.46324 6.09482C2.35949 5.99134 2.30762 5.86558 2.30762 5.71753V5.39211C2.30762 5.28364 2.33477 5.1901 2.38908 5.11148C2.44352 5.03301 2.51519 4.96919 2.60408 4.92003L9.33804 1.62523C9.54609 1.52482 9.76637 1.47461 9.99887 1.47461C10.2314 1.47461 10.4523 1.52482 10.6618 1.62523L17.362 4.89919C17.4667 4.95267 17.5479 5.02746 17.6055 5.12357C17.6633 5.21982 17.6922 5.32315 17.6922 5.43357V5.6594C17.6922 5.82996 17.6364 5.97107 17.5247 6.08273C17.413 6.1944 17.2712 6.25023 17.0993 6.25023ZM5.26262 5.00023H14.7372L10.1122 2.75669C10.0747 2.74058 10.0373 2.73253 9.99991 2.73253C9.96255 2.73253 9.92512 2.74058 9.88762 2.75669L5.26262 5.00023Z" fill="#A66A26"/>
</g>
</svg>
