<svg width="36" height="36" viewBox="0 0 36 36" fill="none" xmlns="http://www.w3.org/2000/svg">
<path d="M0 4C0 1.79086 1.79086 0 4 0H32C34.2091 0 36 1.79086 36 4V32C36 34.2091 34.2091 36 32 36H4C1.79086 36 0 34.2091 0 32V4Z" fill="#FFF4E5"/>
<mask id="mask0_2777_53915" style="mask-type:alpha" maskUnits="userSpaceOnUse" x="8" y="8" width="20" height="20">
<rect x="8" y="8" width="20" height="20" fill="#D9D9D9"/>
</mask>
<g mask="url(#mask0_2777_53915)">
<path d="M12.7916 21.5419V16.5419C12.7916 16.3648 12.8515 16.2163 12.9714 16.0965C13.0912 15.9768 13.2397 15.9169 13.4168 15.9169C13.594 15.9169 13.7425 15.9768 13.8622 16.0965C13.9818 16.2163 14.0416 16.3648 14.0416 16.5419V21.5419C14.0416 21.719 13.9816 21.8675 13.8618 21.9873C13.7419 22.107 13.5935 22.1669 13.4164 22.1669C13.2391 22.1669 13.0907 22.107 12.9712 21.9873C12.8514 21.8675 12.7916 21.719 12.7916 21.5419ZM17.3749 21.5419V16.5419C17.3749 16.3648 17.4348 16.2163 17.5547 16.0965C17.6746 15.9768 17.823 15.9169 18.0001 15.9169C18.1773 15.9169 18.3257 15.9768 18.4453 16.0965C18.565 16.2163 18.6249 16.3648 18.6249 16.5419V21.5419C18.6249 21.719 18.565 21.8675 18.4451 21.9873C18.3253 22.107 18.1768 22.1669 17.9997 22.1669C17.8225 22.1669 17.6741 22.107 17.5545 21.9873C17.4348 21.8675 17.3749 21.719 17.3749 21.5419ZM10.9326 25.0836C10.7555 25.0836 10.6071 25.0236 10.4874 24.9038C10.3675 24.7839 10.3076 24.6354 10.3076 24.4584C10.3076 24.2811 10.3675 24.1327 10.4874 24.0132C10.6071 23.8934 10.7555 23.8336 10.9326 23.8336H25.0672C25.2443 23.8336 25.3927 23.8935 25.5124 24.0134C25.6323 24.1332 25.6922 24.2817 25.6922 24.4588C25.6922 24.636 25.6323 24.7844 25.5124 24.904C25.3927 25.0237 25.2443 25.0836 25.0672 25.0836H10.9326ZM21.9582 21.5419V16.5419C21.9582 16.3648 22.0182 16.2163 22.138 16.0965C22.2579 15.9768 22.4064 15.9169 22.5835 15.9169C22.7607 15.9169 22.9091 15.9768 23.0287 16.0965C23.1484 16.2163 23.2082 16.3648 23.2082 16.5419V21.5419C23.2082 21.719 23.1483 21.8675 23.0285 21.9873C22.9086 22.107 22.7601 22.1669 22.583 22.1669C22.4058 22.1669 22.2573 22.107 22.1376 21.9873C22.018 21.8675 21.9582 21.719 21.9582 21.5419ZM25.0993 14.2502H10.8414C10.693 14.2502 10.567 14.1984 10.4632 14.0948C10.3595 13.9913 10.3076 13.8656 10.3076 13.7175V13.3921C10.3076 13.2836 10.3348 13.1901 10.3891 13.1115C10.4435 13.033 10.5152 12.9692 10.6041 12.92L17.338 9.62523C17.5461 9.52482 17.7664 9.47461 17.9989 9.47461C18.2314 9.47461 18.4523 9.52482 18.6618 9.62523L25.362 12.8992C25.4667 12.9527 25.5479 13.0275 25.6055 13.1236C25.6633 13.2198 25.6922 13.3232 25.6922 13.4336V13.6594C25.6922 13.83 25.6364 13.9711 25.5247 14.0827C25.413 14.1944 25.2712 14.2502 25.0993 14.2502ZM13.2626 13.0002H22.7372L18.1122 10.7567C18.0747 10.7406 18.0373 10.7325 17.9999 10.7325C17.9625 10.7325 17.9251 10.7406 17.8876 10.7567L13.2626 13.0002Z" fill="#A66A26"/>
</g>
</svg>
