<svg width="49" height="44" viewBox="0 0 49 44" fill="none" xmlns="http://www.w3.org/2000/svg">
<mask id="path-1-inside-1_4117_9623" fill="white">
<path d="M0 0H49V44H0V0Z"/>
</mask>
<path d="M0 0H49V44H0V0Z" fill="#F3F4F6"/>
<path d="M49 0H48V44H49H50V0H49Z" fill="#D1D5DB" mask="url(#path-1-inside-1_4117_9623)"/>
<path d="M16.648 21.414H19.35V22.716H16.648V25.446H15.332V22.716H12.644V21.414H15.332V18.656H16.648V21.414ZM27.4317 21.274C27.4317 21.8433 27.3897 22.4127 27.3057 22.982C27.2217 23.542 27.0771 24.074 26.8717 24.578C26.6664 25.0727 26.3817 25.516 26.0177 25.908C25.6537 26.2907 25.1871 26.594 24.6177 26.818C24.0577 27.0327 23.3764 27.14 22.5737 27.14C22.3871 27.14 22.1631 27.1307 21.9017 27.112C21.6497 27.0933 21.4397 27.0653 21.2717 27.028V25.572C21.4491 25.6187 21.6404 25.656 21.8457 25.684C22.0604 25.712 22.2704 25.726 22.4757 25.726C23.1104 25.726 23.6331 25.642 24.0437 25.474C24.4637 25.2967 24.7904 25.054 25.0237 24.746C25.2664 24.4287 25.4437 24.06 25.5557 23.64C25.6677 23.2107 25.7331 22.7533 25.7517 22.268H25.6677C25.5277 22.4827 25.3597 22.6787 25.1637 22.856C24.9771 23.0333 24.7391 23.1733 24.4497 23.276C24.1697 23.3787 23.8151 23.43 23.3857 23.43C22.8164 23.43 22.3171 23.3087 21.8877 23.066C21.4677 22.8233 21.1411 22.4733 20.9077 22.016C20.6744 21.5493 20.5577 20.9847 20.5577 20.322C20.5577 19.6033 20.6931 18.9873 20.9637 18.474C21.2344 17.9607 21.6171 17.5687 22.1117 17.298C22.6157 17.018 23.2037 16.878 23.8757 16.878C24.3797 16.878 24.8464 16.9713 25.2757 17.158C25.7051 17.3353 26.0784 17.606 26.3957 17.97C26.7224 18.3247 26.9744 18.7773 27.1517 19.328C27.3384 19.8787 27.4317 20.5273 27.4317 21.274ZM23.9037 18.334C23.4277 18.334 23.0404 18.4927 22.7417 18.81C22.4431 19.1273 22.2937 19.622 22.2937 20.294C22.2937 20.8447 22.4197 21.2787 22.6717 21.596C22.9331 21.904 23.3297 22.058 23.8617 22.058C24.2257 22.058 24.5384 21.9787 24.7997 21.82C25.0704 21.6613 25.2804 21.4653 25.4297 21.232C25.5791 20.9987 25.6537 20.7513 25.6537 20.49C25.6537 20.238 25.6164 19.986 25.5417 19.734C25.4671 19.4727 25.3551 19.2347 25.2057 19.02C25.0657 18.8053 24.8837 18.6373 24.6597 18.516C24.4451 18.3947 24.1931 18.334 23.9037 18.334ZM33.4974 27H31.7334V20.77C31.7334 20.5647 31.7334 20.3547 31.7334 20.14C31.7428 19.9253 31.7521 19.7107 31.7614 19.496C31.7708 19.272 31.7801 19.0667 31.7894 18.88C31.6961 18.9733 31.5794 19.0853 31.4394 19.216C31.2994 19.3373 31.1548 19.4633 31.0054 19.594L29.8854 20.49L29.0034 19.398L32.0274 17.004H33.4974V27Z" fill="#6B7280"/>
</svg>
