<svg width="40" height="40" viewBox="0 0 40 40" fill="none" xmlns="http://www.w3.org/2000/svg">
<path d="M6 0.5H34C37.0376 0.5 39.5 2.96243 39.5 6V34C39.5 37.0376 37.0376 39.5 34 39.5H6C2.96243 39.5 0.5 37.0376 0.5 34V6C0.5 2.96243 2.96243 0.5 6 0.5Z" fill="#E5EFF9"/>
<path d="M6 0.5H34C37.0376 0.5 39.5 2.96243 39.5 6V34C39.5 37.0376 37.0376 39.5 34 39.5H6C2.96243 39.5 0.5 37.0376 0.5 34V6C0.5 2.96243 2.96243 0.5 6 0.5Z" stroke="#9CBFE3"/>
<mask id="mask0_2777_53284" style="mask-type:alpha" maskUnits="userSpaceOnUse" x="8" y="8" width="24" height="24">
<rect x="8" y="8" width="24" height="24" fill="#D9D9D9"/>
</mask>
<g mask="url(#mask0_2777_53284)">
<path d="M12.3077 27.5C11.8026 27.5 11.375 27.325 11.025 26.975C10.675 26.625 10.5 26.1974 10.5 25.6923V14.3077C10.5 13.8026 10.675 13.375 11.025 13.025C11.375 12.675 11.8026 12.5 12.3077 12.5H27.6923C28.1974 12.5 28.625 12.675 28.975 13.025C29.325 13.375 29.5 13.8026 29.5 14.3077V25.6923C29.5 26.1974 29.325 26.625 28.975 26.975C28.625 27.325 28.1974 27.5 27.6923 27.5H12.3077ZM28 15.4423L20.4865 20.252C20.4097 20.2955 20.3302 20.3298 20.248 20.3548C20.166 20.3798 20.0833 20.3923 20 20.3923C19.9167 20.3923 19.834 20.3798 19.752 20.3548C19.6698 20.3298 19.5903 20.2955 19.5135 20.252L12 15.4423V25.6923C12 25.7821 12.0288 25.8558 12.0865 25.9135C12.1442 25.9712 12.2179 26 12.3077 26H27.6923C27.7821 26 27.8558 25.9712 27.9135 25.9135C27.9712 25.8558 28 25.7821 28 25.6923V15.4423ZM20 19L27.8463 14H12.1537L20 19ZM12 15.673V14.5298V14.5595V14.5277V15.673Z" fill="#003366"/>
</g>
</svg>
