<svg width="16" height="16" viewBox="0 0 16 16" fill="none" xmlns="http://www.w3.org/2000/svg">
<mask id="mask0_2777_53749" style="mask-type:alpha" maskUnits="userSpaceOnUse" x="0" y="0" width="16" height="16">
<rect width="16" height="16" fill="#D9D9D9"/>
</mask>
<g mask="url(#mask0_2777_53749)">
<path d="M8.00002 13.0093C9.30424 11.8418 10.3023 10.7219 10.9942 9.64966C11.6861 8.57744 12.032 7.63832 12.032 6.83232C12.032 5.61699 11.6459 4.61788 10.8737 3.83499C10.1015 3.0521 9.14357 2.66066 8.00002 2.66066C6.85646 2.66066 5.89857 3.0521 5.12635 3.83499C4.35413 4.61788 3.96802 5.61699 3.96802 6.83232C3.96802 7.63832 4.31396 8.57744 5.00585 9.64966C5.69774 10.7219 6.6958 11.8418 8.00002 13.0093ZM7.61035 13.8933C7.48035 13.8484 7.3628 13.779 7.25768 13.685C6.65946 13.1337 6.09963 12.5659 5.57818 11.9817C5.05685 11.3975 4.60368 10.8136 4.21868 10.2298C3.83357 9.64605 3.52885 9.06744 3.30452 8.49399C3.08018 7.92044 2.96802 7.36655 2.96802 6.83232C2.96802 5.29388 3.46563 4.04838 4.46085 3.09583C5.45618 2.14327 6.63591 1.66699 8.00002 1.66699C9.36413 1.66699 10.5439 2.14327 11.5392 3.09583C12.5344 4.04838 13.032 5.29388 13.032 6.83232C13.032 7.36655 12.9199 7.91933 12.6955 8.49066C12.4712 9.0621 12.1676 9.64077 11.7847 10.2267C11.4017 10.8125 10.9495 11.3965 10.4282 11.9785C9.90685 12.5606 9.34702 13.1273 8.74868 13.6785C8.64357 13.7725 8.52502 13.843 8.39302 13.89C8.26091 13.937 8.12991 13.9605 8.00002 13.9605C7.87013 13.9605 7.74024 13.9381 7.61035 13.8933ZM8.85185 7.55733C9.08741 7.32188 9.20518 7.03794 9.20518 6.70549C9.20518 6.37305 9.08741 6.08905 8.85185 5.85349C8.61641 5.61805 8.33246 5.50033 8.00002 5.50033C7.66757 5.50033 7.38363 5.61805 7.14818 5.85349C6.91263 6.08905 6.79485 6.37305 6.79485 6.70549C6.79485 7.03794 6.91263 7.32188 7.14818 7.55733C7.38363 7.79277 7.66757 7.91049 8.00002 7.91049C8.33246 7.91049 8.61641 7.79277 8.85185 7.55733Z" fill="#6B7280"/>
</g>
</svg>
