<svg width="603" height="54" viewBox="0 0 603 54" fill="none" xmlns="http://www.w3.org/2000/svg">
<path d="M0 2C0 0.89543 0.895431 0 2 0H32C33.1046 0 34 0.895431 34 2V12C34 13.1046 33.1046 14 32 14H2C0.89543 14 0 13.1046 0 12V2Z" fill="#FFD323"/>
<path d="M7.12 3.86C7.75333 3.86 8.28333 3.92 8.71 4.04C9.14333 4.15333 9.46667 4.34333 9.68 4.61C9.9 4.87 10.01 5.22333 10.01 5.67C10.01 5.93667 9.96667 6.18 9.88 6.4C9.79333 6.62 9.66667 6.8 9.5 6.94C9.34 7.08 9.14333 7.17 8.91 7.21V7.26C9.15 7.30667 9.36667 7.39 9.56 7.51C9.75333 7.63 9.90667 7.80333 10.02 8.03C10.1333 8.25667 10.19 8.55667 10.19 8.93C10.19 9.36333 10.0833 9.73667 9.87 10.05C9.66333 10.3567 9.36333 10.5933 8.97 10.76C8.57667 10.92 8.11 11 7.57 11H4.9V3.86H7.12ZM7.29 6.69C7.73 6.69 8.03333 6.62 8.2 6.48C8.37333 6.34 8.46 6.13667 8.46 5.87C8.46 5.59667 8.36 5.4 8.16 5.28C7.96 5.16 7.64333 5.1 7.21 5.1H6.41V6.69H7.29ZM6.41 7.89V9.75H7.4C7.85333 9.75 8.17 9.66333 8.35 9.49C8.53 9.31 8.62 9.07333 8.62 8.78C8.62 8.6 8.58 8.44333 8.5 8.31C8.42667 8.17667 8.29667 8.07333 8.11 8C7.92333 7.92667 7.67 7.89 7.35 7.89H6.41ZM16.2288 11H12.1188V3.86H16.2288V5.1H13.6288V6.67H16.0488V7.91H13.6288V9.75H16.2288V11ZM20.9645 11H19.4545V5.12H17.5145V3.86H22.9045V5.12H20.9645V11ZM28.1723 11L27.6523 9.3H25.0523L24.5323 11H22.9023L25.4223 3.83H27.2723L29.8023 11H28.1723ZM26.7723 6.37C26.739 6.25667 26.6957 6.11333 26.6423 5.94C26.589 5.76667 26.5357 5.59 26.4823 5.41C26.429 5.23 26.3857 5.07333 26.3523 4.94C26.319 5.07333 26.2723 5.24 26.2123 5.44C26.159 5.63333 26.1057 5.82 26.0523 6C26.0057 6.17333 25.969 6.29667 25.9423 6.37L25.4323 8.03H27.2923L26.7723 6.37Z" fill="black"/>
<path d="M4.716 22.392H7.812V26.664C7.356 26.816 6.888 26.928 6.408 27C5.936 27.08 5.396 27.12 4.788 27.12C3.916 27.12 3.176 26.944 2.568 26.592C1.968 26.24 1.508 25.736 1.188 25.08C0.876 24.424 0.72 23.636 0.72 22.716C0.72 21.82 0.896 21.044 1.248 20.388C1.6 19.732 2.104 19.224 2.76 18.864C3.424 18.496 4.228 18.312 5.172 18.312C5.644 18.312 6.096 18.36 6.528 18.456C6.96 18.544 7.36 18.668 7.728 18.828L7.26 19.908C6.964 19.772 6.632 19.66 6.264 19.572C5.904 19.476 5.524 19.428 5.124 19.428C4.492 19.428 3.944 19.564 3.48 19.836C3.024 20.1 2.672 20.48 2.424 20.976C2.184 21.464 2.064 22.048 2.064 22.728C2.064 23.368 2.164 23.936 2.364 24.432C2.564 24.928 2.88 25.316 3.312 25.596C3.744 25.876 4.308 26.016 5.004 26.016C5.236 26.016 5.44 26.008 5.616 25.992C5.792 25.968 5.952 25.944 6.096 25.92C6.248 25.888 6.392 25.86 6.528 25.836V23.508H4.716V22.392ZM15.4148 23.76C15.4148 24.296 15.3428 24.772 15.1988 25.188C15.0548 25.604 14.8508 25.956 14.5868 26.244C14.3228 26.532 14.0028 26.752 13.6268 26.904C13.2508 27.048 12.8268 27.12 12.3548 27.12C11.9228 27.12 11.5228 27.048 11.1548 26.904C10.7868 26.752 10.4668 26.532 10.1948 26.244C9.93075 25.956 9.72275 25.604 9.57075 25.188C9.41875 24.772 9.34275 24.292 9.34275 23.748C9.34275 23.036 9.46275 22.432 9.70275 21.936C9.95075 21.44 10.3028 21.064 10.7588 20.808C11.2228 20.544 11.7668 20.412 12.3908 20.412C12.9828 20.412 13.5028 20.544 13.9508 20.808C14.4068 21.064 14.7628 21.44 15.0188 21.936C15.2828 22.432 15.4148 23.04 15.4148 23.76ZM10.6508 23.76C10.6508 24.24 10.7108 24.656 10.8308 25.008C10.9508 25.352 11.1388 25.616 11.3948 25.8C11.6508 25.984 11.9788 26.076 12.3788 26.076C12.7788 26.076 13.1068 25.984 13.3628 25.8C13.6188 25.616 13.8068 25.352 13.9268 25.008C14.0468 24.656 14.1068 24.24 14.1068 23.76C14.1068 23.264 14.0428 22.848 13.9148 22.512C13.7948 22.176 13.6068 21.92 13.3508 21.744C13.1028 21.56 12.7748 21.468 12.3668 21.468C11.7668 21.468 11.3308 21.668 11.0588 22.068C10.7868 22.468 10.6508 23.032 10.6508 23.76ZM18.2449 27L15.7969 20.532H17.1409L18.4849 24.312C18.5409 24.472 18.5969 24.652 18.6529 24.852C18.7169 25.052 18.7729 25.244 18.8209 25.428C18.8689 25.612 18.9009 25.772 18.9169 25.908H18.9649C18.9889 25.772 19.0249 25.612 19.0729 25.428C19.1289 25.236 19.1889 25.044 19.2529 24.852C19.3169 24.652 19.3729 24.472 19.4209 24.312L20.7649 20.532H22.1089L19.6489 27H18.2449ZM25.6533 20.412C26.2213 20.412 26.7093 20.532 27.1173 20.772C27.5253 21.004 27.8373 21.34 28.0533 21.78C28.2773 22.22 28.3893 22.74 28.3893 23.34V24.036H24.0453C24.0613 24.7 24.2333 25.208 24.5613 25.56C24.8973 25.912 25.3653 26.088 25.9653 26.088C26.3813 26.088 26.7493 26.052 27.0693 25.98C27.3973 25.9 27.7333 25.784 28.0773 25.632V26.688C27.7573 26.832 27.4293 26.94 27.0933 27.012C26.7653 27.084 26.3733 27.12 25.9173 27.12C25.2933 27.12 24.7413 26.996 24.2613 26.748C23.7813 26.5 23.4053 26.132 23.1333 25.644C22.8693 25.148 22.7373 24.54 22.7373 23.82C22.7373 23.092 22.8573 22.476 23.0973 21.972C23.3453 21.468 23.6853 21.084 24.1173 20.82C24.5573 20.548 25.0693 20.412 25.6533 20.412ZM25.6533 21.396C25.1973 21.396 24.8293 21.544 24.5493 21.84C24.2773 22.136 24.1173 22.556 24.0693 23.1H27.1173C27.1173 22.764 27.0653 22.468 26.9613 22.212C26.8573 21.956 26.6973 21.756 26.4813 21.612C26.2653 21.468 25.9893 21.396 25.6533 21.396ZM33.1685 20.412C33.2805 20.412 33.4045 20.42 33.5405 20.436C33.6765 20.444 33.7885 20.456 33.8765 20.472L33.7445 21.66C33.6565 21.636 33.5525 21.616 33.4325 21.6C33.3125 21.584 33.2005 21.576 33.0965 21.576C32.8565 21.576 32.6245 21.624 32.4005 21.72C32.1845 21.808 31.9885 21.94 31.8125 22.116C31.6365 22.284 31.4965 22.492 31.3925 22.74C31.2965 22.988 31.2485 23.272 31.2485 23.592V27H29.9765V20.532H30.9845L31.1525 21.684H31.2005C31.3365 21.452 31.5005 21.24 31.6925 21.048C31.8845 20.856 32.1045 20.704 32.3525 20.592C32.6005 20.472 32.8725 20.412 33.1685 20.412ZM38.3501 20.412C39.1021 20.412 39.6781 20.6 40.0781 20.976C40.4781 21.352 40.6781 21.956 40.6781 22.788V27H39.4181V22.968C39.4181 22.464 39.3101 22.088 39.0941 21.84C38.8861 21.584 38.5501 21.456 38.0861 21.456C37.4301 21.456 36.9741 21.652 36.7181 22.044C36.4701 22.436 36.3461 23 36.3461 23.736V27H35.0741V20.532H36.0821L36.2621 21.396H36.3341C36.4781 21.172 36.6541 20.988 36.8621 20.844C37.0701 20.7 37.3021 20.592 37.5581 20.52C37.8141 20.448 38.0781 20.412 38.3501 20.412ZM49.8807 20.412C50.6087 20.412 51.1567 20.6 51.5247 20.976C51.8927 21.352 52.0767 21.956 52.0767 22.788V27H50.8047V22.956C50.8047 22.46 50.7047 22.088 50.5047 21.84C50.3127 21.584 50.0087 21.456 49.5927 21.456C49.0167 21.456 48.6047 21.636 48.3567 21.996C48.1087 22.348 47.9847 22.86 47.9847 23.532V27H46.7247V22.956C46.7247 22.628 46.6767 22.352 46.5807 22.128C46.4927 21.904 46.3607 21.736 46.1847 21.624C46.0087 21.512 45.7807 21.456 45.5007 21.456C45.1007 21.456 44.7847 21.544 44.5527 21.72C44.3207 21.896 44.1527 22.156 44.0487 22.5C43.9527 22.836 43.9047 23.248 43.9047 23.736V27H42.6327V20.532H43.6407L43.8207 21.396H43.8927C44.0287 21.172 44.1927 20.988 44.3847 20.844C44.5847 20.7 44.8047 20.592 45.0447 20.52C45.2847 20.448 45.5327 20.412 45.7887 20.412C46.2767 20.412 46.6887 20.5 47.0247 20.676C47.3607 20.844 47.6047 21.104 47.7567 21.456H47.8527C48.0607 21.096 48.3487 20.832 48.7167 20.664C49.0847 20.496 49.4727 20.412 49.8807 20.412ZM56.5673 20.412C57.1353 20.412 57.6233 20.532 58.0313 20.772C58.4393 21.004 58.7513 21.34 58.9673 21.78C59.1913 22.22 59.3033 22.74 59.3033 23.34V24.036H54.9593C54.9753 24.7 55.1473 25.208 55.4753 25.56C55.8113 25.912 56.2793 26.088 56.8793 26.088C57.2953 26.088 57.6633 26.052 57.9833 25.98C58.3113 25.9 58.6473 25.784 58.9913 25.632V26.688C58.6713 26.832 58.3433 26.94 58.0073 27.012C57.6793 27.084 57.2873 27.12 56.8313 27.12C56.2073 27.12 55.6553 26.996 55.1753 26.748C54.6953 26.5 54.3193 26.132 54.0473 25.644C53.7833 25.148 53.6513 24.54 53.6513 23.82C53.6513 23.092 53.7713 22.476 54.0113 21.972C54.2593 21.468 54.5993 21.084 55.0313 20.82C55.4713 20.548 55.9833 20.412 56.5673 20.412ZM56.5673 21.396C56.1113 21.396 55.7433 21.544 55.4633 21.84C55.1913 22.136 55.0313 22.556 54.9833 23.1H58.0313C58.0313 22.764 57.9793 22.468 57.8753 22.212C57.7713 21.956 57.6113 21.756 57.3953 21.612C57.1793 21.468 56.9033 21.396 56.5673 21.396ZM64.1665 20.412C64.9185 20.412 65.4945 20.6 65.8945 20.976C66.2945 21.352 66.4945 21.956 66.4945 22.788V27H65.2345V22.968C65.2345 22.464 65.1265 22.088 64.9105 21.84C64.7025 21.584 64.3665 21.456 63.9025 21.456C63.2465 21.456 62.7905 21.652 62.5345 22.044C62.2865 22.436 62.1625 23 62.1625 23.736V27H60.8905V20.532H61.8985L62.0785 21.396H62.1505C62.2945 21.172 62.4705 20.988 62.6785 20.844C62.8865 20.7 63.1185 20.592 63.3745 20.52C63.6305 20.448 63.8945 20.412 64.1665 20.412ZM70.7771 26.088C70.9451 26.088 71.1171 26.072 71.2931 26.04C71.4691 26.008 71.6211 25.972 71.7491 25.932V26.892C71.6131 26.956 71.4291 27.008 71.1971 27.048C70.9651 27.096 70.7331 27.12 70.5011 27.12C70.1491 27.12 69.8251 27.06 69.5291 26.94C69.2411 26.82 69.0091 26.612 68.8331 26.316C68.6571 26.02 68.5691 25.608 68.5691 25.08V21.504H67.6691V20.928L68.6171 20.448L69.0611 19.08H69.8411V20.532H71.6891V21.504H69.8411V25.056C69.8411 25.408 69.9251 25.668 70.0931 25.836C70.2691 26.004 70.4971 26.088 70.7771 26.088ZM81.8601 23.76C81.8601 24.296 81.7881 24.772 81.6441 25.188C81.5001 25.604 81.2961 25.956 81.0321 26.244C80.7681 26.532 80.4481 26.752 80.0721 26.904C79.6961 27.048 79.2721 27.12 78.8001 27.12C78.3681 27.12 77.9681 27.048 77.6001 26.904C77.2321 26.752 76.9121 26.532 76.6401 26.244C76.3761 25.956 76.1681 25.604 76.0161 25.188C75.8641 24.772 75.7881 24.292 75.7881 23.748C75.7881 23.036 75.9081 22.432 76.1481 21.936C76.3961 21.44 76.7481 21.064 77.2041 20.808C77.6681 20.544 78.2121 20.412 78.8361 20.412C79.4281 20.412 79.9481 20.544 80.3961 20.808C80.8521 21.064 81.2081 21.44 81.4641 21.936C81.7281 22.432 81.8601 23.04 81.8601 23.76ZM77.0961 23.76C77.0961 24.24 77.1561 24.656 77.2761 25.008C77.3961 25.352 77.5841 25.616 77.8401 25.8C78.0961 25.984 78.4241 26.076 78.8241 26.076C79.2241 26.076 79.5521 25.984 79.8081 25.8C80.0641 25.616 80.2521 25.352 80.3721 25.008C80.4921 24.656 80.5521 24.24 80.5521 23.76C80.5521 23.264 80.4881 22.848 80.3601 22.512C80.2401 22.176 80.0521 21.92 79.7961 21.744C79.5481 21.56 79.2201 21.468 78.8121 21.468C78.2121 21.468 77.7761 21.668 77.5041 22.068C77.2321 22.468 77.0961 23.032 77.0961 23.76ZM86.6286 21.504H85.0326V27H83.7606V21.504H82.6686V20.904L83.7606 20.508V20.1C83.7606 19.548 83.8446 19.108 84.0126 18.78C84.1886 18.444 84.4366 18.2 84.7566 18.048C85.0766 17.896 85.4646 17.82 85.9206 17.82C86.2006 17.82 86.4566 17.844 86.6886 17.892C86.9206 17.94 87.1166 17.992 87.2766 18.048L86.9526 19.02C86.8246 18.98 86.6766 18.944 86.5086 18.912C86.3406 18.872 86.1646 18.852 85.9806 18.852C85.6606 18.852 85.4206 18.956 85.2606 19.164C85.1086 19.372 85.0326 19.688 85.0326 20.112V20.532H86.6286V21.504ZM93.6628 27H90.3388V26.256L91.3588 25.956V19.488L90.3388 19.176V18.432H93.6628V19.176L92.6548 19.488V25.956L93.6628 26.256V27ZM98.397 20.412C99.149 20.412 99.725 20.6 100.125 20.976C100.525 21.352 100.725 21.956 100.725 22.788V27H99.465V22.968C99.465 22.464 99.357 22.088 99.141 21.84C98.933 21.584 98.597 21.456 98.133 21.456C97.477 21.456 97.021 21.652 96.765 22.044C96.517 22.436 96.393 23 96.393 23.736V27H95.121V20.532H96.129L96.309 21.396H96.381C96.525 21.172 96.701 20.988 96.909 20.844C97.117 20.7 97.349 20.592 97.605 20.52C97.861 20.448 98.125 20.412 98.397 20.412ZM104.9 27.12C104.124 27.12 103.496 26.84 103.016 26.28C102.544 25.72 102.308 24.888 102.308 23.784C102.308 22.672 102.548 21.832 103.028 21.264C103.508 20.696 104.14 20.412 104.924 20.412C105.252 20.412 105.536 20.456 105.776 20.544C106.024 20.624 106.236 20.736 106.412 20.88C106.596 21.024 106.752 21.184 106.88 21.36H106.952C106.936 21.248 106.916 21.088 106.892 20.88C106.868 20.664 106.856 20.472 106.856 20.304V17.88H108.128V27H107.132L106.916 26.136H106.856C106.736 26.32 106.584 26.488 106.4 26.64C106.224 26.784 106.012 26.9 105.764 26.988C105.516 27.076 105.228 27.12 104.9 27.12ZM105.2 26.076C105.824 26.076 106.264 25.904 106.52 25.56C106.776 25.208 106.904 24.684 106.904 23.988V23.796C106.904 23.036 106.78 22.456 106.532 22.056C106.292 21.656 105.844 21.456 105.188 21.456C104.668 21.456 104.276 21.668 104.012 22.092C103.748 22.508 103.616 23.08 103.616 23.808C103.616 24.536 103.748 25.096 104.012 25.488C104.276 25.88 104.672 26.076 105.2 26.076ZM111.393 20.532V27H110.121V20.532H111.393ZM110.769 18.072C110.961 18.072 111.129 18.128 111.273 18.24C111.417 18.352 111.489 18.54 111.489 18.804C111.489 19.06 111.417 19.248 111.273 19.368C111.129 19.48 110.961 19.536 110.769 19.536C110.561 19.536 110.385 19.48 110.241 19.368C110.105 19.248 110.037 19.06 110.037 18.804C110.037 18.54 110.105 18.352 110.241 18.24C110.385 18.128 110.561 18.072 110.769 18.072ZM115.899 20.412C116.715 20.412 117.323 20.592 117.723 20.952C118.123 21.304 118.323 21.86 118.323 22.62V27H117.423L117.171 26.1H117.123C116.939 26.332 116.747 26.524 116.547 26.676C116.355 26.828 116.131 26.94 115.875 27.012C115.627 27.084 115.323 27.12 114.963 27.12C114.579 27.12 114.231 27.052 113.919 26.916C113.615 26.772 113.375 26.556 113.199 26.268C113.023 25.972 112.935 25.604 112.935 25.164C112.935 24.508 113.183 24.008 113.679 23.664C114.183 23.32 114.947 23.132 115.971 23.1L117.075 23.064V22.704C117.075 22.224 116.967 21.888 116.751 21.696C116.535 21.504 116.231 21.408 115.839 21.408C115.503 21.408 115.183 21.456 114.879 21.552C114.575 21.648 114.287 21.764 114.015 21.9L113.607 20.976C113.911 20.816 114.259 20.684 114.651 20.58C115.051 20.468 115.467 20.412 115.899 20.412ZM116.199 23.916C115.463 23.948 114.951 24.072 114.663 24.288C114.383 24.496 114.243 24.792 114.243 25.176C114.243 25.512 114.343 25.756 114.543 25.908C114.751 26.06 115.011 26.136 115.323 26.136C115.827 26.136 116.243 25.996 116.571 25.716C116.899 25.436 117.063 25.016 117.063 24.456V23.892L116.199 23.916Z" fill="#374151"/>
<path d="M7.84 50L4.4 38.8H4.32C4.33333 39.0667 4.35333 39.4667 4.38 40C4.40667 40.5333 4.43333 41.1067 4.46 41.72C4.48667 42.32 4.5 42.8667 4.5 43.36V50H1.8V35.72H5.92L9.3 46.64H9.36L12.94 35.72H17.06V50H14.24V43.24C14.24 42.7867 14.2467 42.2667 14.26 41.68C14.2867 41.0933 14.3067 40.54 14.32 40.02C14.3467 39.4867 14.3667 39.0867 14.38 38.82H14.3L10.62 50H7.84ZM23.4072 39.08V50H20.4272V39.08H23.4072ZM21.9272 34.8C22.3672 34.8 22.7472 34.9067 23.0672 35.12C23.3872 35.32 23.5472 35.7 23.5472 36.26C23.5472 36.8067 23.3872 37.1867 23.0672 37.4C22.7472 37.6133 22.3672 37.72 21.9272 37.72C21.4739 37.72 21.0872 37.6133 20.7672 37.4C20.4605 37.1867 20.3072 36.8067 20.3072 36.26C20.3072 35.7 20.4605 35.32 20.7672 35.12C21.0872 34.9067 21.4739 34.8 21.9272 34.8ZM32.7209 38.88C33.8943 38.88 34.8343 39.2 35.5409 39.84C36.2476 40.4667 36.6009 41.48 36.6009 42.88V50H33.6209V43.62C33.6209 42.8333 33.4809 42.2467 33.2009 41.86C32.9209 41.46 32.4743 41.26 31.8609 41.26C30.9543 41.26 30.3343 41.5733 30.0009 42.2C29.6676 42.8133 29.5009 43.7 29.5009 44.86V50H26.5209V39.08H28.8009L29.2009 40.48H29.3609C29.6009 40.1067 29.8943 39.8067 30.2409 39.58C30.5876 39.34 30.9743 39.1667 31.4009 39.06C31.8276 38.94 32.2676 38.88 32.7209 38.88ZM42.6455 39.08V50H39.6655V39.08H42.6455ZM41.1655 34.8C41.6055 34.8 41.9855 34.9067 42.3055 35.12C42.6255 35.32 42.7855 35.7 42.7855 36.26C42.7855 36.8067 42.6255 37.1867 42.3055 37.4C41.9855 37.6133 41.6055 37.72 41.1655 37.72C40.7121 37.72 40.3255 37.6133 40.0055 37.4C39.6988 37.1867 39.5455 36.8067 39.5455 36.26C39.5455 35.7 39.6988 35.32 40.0055 35.12C40.3255 34.9067 40.7121 34.8 41.1655 34.8ZM53.3792 46.76C53.3792 47.4933 53.2059 48.12 52.8592 48.64C52.5126 49.1467 51.9926 49.5333 51.2992 49.8C50.6059 50.0667 49.7459 50.2 48.7192 50.2C47.9592 50.2 47.3059 50.1467 46.7592 50.04C46.2126 49.9467 45.6659 49.7867 45.1192 49.56V47.1C45.7059 47.3667 46.3392 47.5867 47.0192 47.76C47.6992 47.9333 48.2992 48.02 48.8192 48.02C49.4059 48.02 49.8192 47.9333 50.0592 47.76C50.3126 47.5867 50.4392 47.36 50.4392 47.08C50.4392 46.8933 50.3859 46.7267 50.2792 46.58C50.1859 46.4333 49.9726 46.2667 49.6392 46.08C49.3059 45.8933 48.7859 45.6533 48.0792 45.36C47.3992 45.0667 46.8392 44.78 46.3992 44.5C45.9592 44.2067 45.6326 43.86 45.4192 43.46C45.2059 43.0467 45.0992 42.5333 45.0992 41.92C45.0992 40.9067 45.4926 40.1467 46.2792 39.64C47.0659 39.1333 48.1126 38.88 49.4192 38.88C50.0992 38.88 50.7459 38.9467 51.3592 39.08C51.9726 39.2133 52.6059 39.4333 53.2592 39.74L52.3592 41.88C51.9992 41.72 51.6526 41.58 51.3192 41.46C50.9859 41.34 50.6592 41.2467 50.3392 41.18C50.0326 41.1133 49.7126 41.08 49.3792 41.08C48.9392 41.08 48.6059 41.14 48.3792 41.26C48.1659 41.38 48.0592 41.56 48.0592 41.8C48.0592 41.9733 48.1126 42.1333 48.2192 42.28C48.3392 42.4133 48.5592 42.56 48.8792 42.72C49.2126 42.88 49.6992 43.0933 50.3392 43.36C50.9659 43.6133 51.5059 43.88 51.9592 44.16C52.4126 44.4267 52.7592 44.7667 52.9992 45.18C53.2526 45.58 53.3792 46.1067 53.3792 46.76ZM60.3006 47.82C60.634 47.82 60.954 47.7867 61.2606 47.72C61.5673 47.6533 61.874 47.5733 62.1806 47.48V49.7C61.8606 49.8333 61.4606 49.9467 60.9806 50.04C60.514 50.1467 60.0006 50.2 59.4406 50.2C58.7873 50.2 58.2006 50.0933 57.6806 49.88C57.174 49.6667 56.7673 49.3 56.4606 48.78C56.1673 48.2467 56.0206 47.5133 56.0206 46.58V41.32H54.6006V40.06L56.2406 39.06L57.1006 36.76H59.0006V39.08H62.0606V41.32H59.0006V46.58C59.0006 46.9933 59.1206 47.3067 59.3606 47.52C59.6006 47.72 59.914 47.82 60.3006 47.82ZM70.4725 38.88C70.6192 38.88 70.7925 38.8867 70.9925 38.9C71.1925 38.9133 71.3525 38.9333 71.4725 38.96L71.2525 41.76C71.1592 41.7333 71.0192 41.7133 70.8325 41.7C70.6592 41.6733 70.5058 41.66 70.3725 41.66C69.9858 41.66 69.6125 41.7133 69.2525 41.82C68.8925 41.9133 68.5658 42.0667 68.2725 42.28C67.9925 42.4933 67.7658 42.78 67.5925 43.14C67.4325 43.4867 67.3525 43.92 67.3525 44.44V50H64.3725V39.08H66.6325L67.0725 40.92H67.2125C67.4258 40.5467 67.6925 40.2067 68.0125 39.9C68.3325 39.5933 68.6992 39.3467 69.1125 39.16C69.5392 38.9733 69.9925 38.88 70.4725 38.88ZM71.8945 39.08H75.1545L77.2145 45.22C77.2812 45.42 77.3345 45.62 77.3745 45.82C77.4279 46.02 77.4679 46.2267 77.4945 46.44C77.5345 46.6533 77.5612 46.88 77.5745 47.12H77.6345C77.6745 46.7733 77.7279 46.4467 77.7945 46.14C77.8745 45.82 77.9612 45.5133 78.0545 45.22L80.0745 39.08H83.2745L78.6545 51.4C78.3745 52.1467 78.0079 52.7733 77.5545 53.28C77.1145 53.7867 76.6012 54.1667 76.0145 54.42C75.4279 54.6733 74.7879 54.8 74.0945 54.8C73.7612 54.8 73.4679 54.78 73.2145 54.74C72.9745 54.7133 72.7612 54.68 72.5745 54.64V52.28C72.7212 52.3067 72.8945 52.3333 73.0945 52.36C73.3079 52.3867 73.5279 52.4 73.7545 52.4C74.1679 52.4 74.5212 52.3133 74.8145 52.14C75.1212 51.9667 75.3745 51.7267 75.5745 51.42C75.7745 51.1267 75.9345 50.8067 76.0545 50.46L76.2345 49.92L71.8945 39.08ZM99.9566 44.52C99.9566 45.4267 99.8299 46.2333 99.5766 46.94C99.3366 47.6467 98.9832 48.2467 98.5166 48.74C98.0632 49.22 97.5099 49.5867 96.8566 49.84C96.2032 50.08 95.4632 50.2 94.6366 50.2C93.8766 50.2 93.1699 50.08 92.5166 49.84C91.8766 49.5867 91.3232 49.22 90.8566 48.74C90.3899 48.2467 90.0232 47.6467 89.7566 46.94C89.5032 46.2333 89.3766 45.4267 89.3766 44.52C89.3766 43.3067 89.5899 42.2867 90.0166 41.46C90.4432 40.62 91.0566 39.98 91.8566 39.54C92.6566 39.1 93.6032 38.88 94.6966 38.88C95.7232 38.88 96.6299 39.1 97.4166 39.54C98.2032 39.98 98.8232 40.62 99.2766 41.46C99.7299 42.2867 99.9566 43.3067 99.9566 44.52ZM92.4166 44.52C92.4166 45.24 92.4899 45.8467 92.6366 46.34C92.7966 46.82 93.0432 47.1867 93.3766 47.44C93.7099 47.68 94.1432 47.8 94.6766 47.8C95.2099 47.8 95.6366 47.68 95.9566 47.44C96.2899 47.1867 96.5299 46.82 96.6766 46.34C96.8366 45.8467 96.9166 45.24 96.9166 44.52C96.9166 43.8 96.8366 43.2 96.6766 42.72C96.5299 42.24 96.2899 41.88 95.9566 41.64C95.6232 41.4 95.1899 41.28 94.6566 41.28C93.8699 41.28 93.2966 41.5533 92.9366 42.1C92.5899 42.6333 92.4166 43.44 92.4166 44.52ZM108.459 41.32H105.879V50H102.899V41.32H101.259V39.88L102.899 39.08V38.28C102.899 37.3467 103.053 36.6267 103.359 36.12C103.679 35.6 104.126 35.2333 104.699 35.02C105.286 34.8067 105.973 34.7 106.759 34.7C107.346 34.7 107.873 34.7467 108.339 34.84C108.819 34.9333 109.206 35.04 109.499 35.16L108.739 37.34C108.513 37.2733 108.266 37.2133 107.999 37.16C107.733 37.0933 107.426 37.06 107.079 37.06C106.666 37.06 106.359 37.1867 106.159 37.44C105.973 37.6933 105.879 38.0133 105.879 38.4V39.08H108.459V41.32ZM124.009 46.04C124.009 46.88 123.802 47.6133 123.389 48.24C122.976 48.8667 122.376 49.3533 121.589 49.7C120.816 50.0333 119.869 50.2 118.749 50.2C118.256 50.2 117.769 50.1667 117.289 50.1C116.822 50.0333 116.369 49.94 115.929 49.82C115.502 49.6867 115.096 49.5267 114.709 49.34V46.52C115.389 46.8133 116.089 47.0867 116.809 47.34C117.542 47.58 118.269 47.7 118.989 47.7C119.482 47.7 119.876 47.6333 120.169 47.5C120.476 47.3667 120.696 47.1867 120.829 46.96C120.976 46.7333 121.049 46.4733 121.049 46.18C121.049 45.82 120.922 45.5133 120.669 45.26C120.429 45.0067 120.102 44.7733 119.689 44.56C119.276 44.3333 118.802 44.0933 118.269 43.84C117.936 43.68 117.576 43.4933 117.189 43.28C116.802 43.0533 116.429 42.78 116.069 42.46C115.722 42.1267 115.436 41.7267 115.209 41.26C114.982 40.7933 114.869 40.2333 114.869 39.58C114.869 38.7267 115.062 38 115.449 37.4C115.849 36.7867 116.409 36.32 117.129 36C117.862 35.68 118.722 35.52 119.709 35.52C120.456 35.52 121.162 35.6067 121.829 35.78C122.509 35.9533 123.216 36.2 123.949 36.52L122.969 38.88C122.316 38.6133 121.729 38.4067 121.209 38.26C120.689 38.1133 120.156 38.04 119.609 38.04C119.236 38.04 118.916 38.1 118.649 38.22C118.382 38.34 118.176 38.5067 118.029 38.72C117.896 38.9333 117.829 39.1867 117.829 39.48C117.829 39.8133 117.929 40.1 118.129 40.34C118.329 40.5667 118.629 40.7867 119.029 41C119.429 41.2133 119.929 41.4667 120.529 41.76C121.262 42.1067 121.882 42.4667 122.389 42.84C122.909 43.2133 123.309 43.6533 123.589 44.16C123.869 44.6667 124.009 45.2933 124.009 46.04ZM136.285 44.52C136.285 45.4267 136.158 46.2333 135.905 46.94C135.665 47.6467 135.311 48.2467 134.845 48.74C134.391 49.22 133.838 49.5867 133.185 49.84C132.531 50.08 131.791 50.2 130.965 50.2C130.205 50.2 129.498 50.08 128.845 49.84C128.205 49.5867 127.651 49.22 127.185 48.74C126.718 48.2467 126.351 47.6467 126.085 46.94C125.831 46.2333 125.705 45.4267 125.705 44.52C125.705 43.3067 125.918 42.2867 126.345 41.46C126.771 40.62 127.385 39.98 128.185 39.54C128.985 39.1 129.931 38.88 131.025 38.88C132.051 38.88 132.958 39.1 133.745 39.54C134.531 39.98 135.151 40.62 135.605 41.46C136.058 42.2867 136.285 43.3067 136.285 44.52ZM128.745 44.52C128.745 45.24 128.818 45.8467 128.965 46.34C129.125 46.82 129.371 47.1867 129.705 47.44C130.038 47.68 130.471 47.8 131.005 47.8C131.538 47.8 131.965 47.68 132.285 47.44C132.618 47.1867 132.858 46.82 133.005 46.34C133.165 45.8467 133.245 45.24 133.245 44.52C133.245 43.8 133.165 43.2 133.005 42.72C132.858 42.24 132.618 41.88 132.285 41.64C131.951 41.4 131.518 41.28 130.985 41.28C130.198 41.28 129.625 41.5533 129.265 42.1C128.918 42.6333 128.745 43.44 128.745 44.52ZM143.188 50.2C142.108 50.2 141.188 50.0067 140.428 49.62C139.668 49.22 139.088 48.6067 138.688 47.78C138.288 46.9533 138.088 45.8933 138.088 44.6C138.088 43.2667 138.314 42.18 138.768 41.34C139.221 40.5 139.848 39.88 140.648 39.48C141.461 39.08 142.394 38.88 143.448 38.88C144.194 38.88 144.841 38.9533 145.388 39.1C145.948 39.2467 146.434 39.42 146.848 39.62L145.968 41.92C145.501 41.7333 145.061 41.58 144.648 41.46C144.248 41.34 143.848 41.28 143.448 41.28C142.928 41.28 142.494 41.4067 142.148 41.66C141.801 41.9 141.541 42.2667 141.368 42.76C141.208 43.24 141.128 43.8467 141.128 44.58C141.128 45.3 141.214 45.9 141.388 46.38C141.574 46.8467 141.841 47.2 142.188 47.44C142.534 47.6667 142.954 47.78 143.448 47.78C144.074 47.78 144.628 47.7 145.108 47.54C145.588 47.3667 146.054 47.1333 146.508 46.84V49.38C146.054 49.6733 145.574 49.88 145.068 50C144.574 50.1333 143.948 50.2 143.188 50.2ZM152.001 39.08V50H149.021V39.08H152.001ZM150.521 34.8C150.961 34.8 151.341 34.9067 151.661 35.12C151.981 35.32 152.141 35.7 152.141 36.26C152.141 36.8067 151.981 37.1867 151.661 37.4C151.341 37.6133 150.961 37.72 150.521 37.72C150.068 37.72 149.681 37.6133 149.361 37.4C149.054 37.1867 148.901 36.8067 148.901 36.26C148.901 35.7 149.054 35.32 149.361 35.12C149.681 34.9067 150.068 34.8 150.521 34.8ZM159.595 38.86C161.061 38.86 162.181 39.18 162.955 39.82C163.741 40.4467 164.135 41.4133 164.135 42.72V50H162.055L161.475 48.52H161.395C161.088 48.9067 160.768 49.2267 160.435 49.48C160.115 49.7333 159.741 49.9133 159.315 50.02C158.901 50.14 158.388 50.2 157.775 50.2C157.135 50.2 156.555 50.08 156.035 49.84C155.528 49.5867 155.128 49.2067 154.835 48.7C154.541 48.18 154.395 47.5267 154.395 46.74C154.395 45.58 154.801 44.7267 155.615 44.18C156.428 43.62 157.648 43.3133 159.275 43.26L161.175 43.2V42.72C161.175 42.1467 161.021 41.7267 160.715 41.46C160.421 41.1933 160.008 41.06 159.475 41.06C158.941 41.06 158.421 41.14 157.915 41.3C157.408 41.4467 156.901 41.6333 156.395 41.86L155.415 39.84C156.001 39.5333 156.648 39.2933 157.355 39.12C158.075 38.9467 158.821 38.86 159.595 38.86ZM160.015 44.98C159.055 45.0067 158.388 45.18 158.015 45.5C157.641 45.82 157.455 46.24 157.455 46.76C157.455 47.2133 157.588 47.54 157.855 47.74C158.121 47.9267 158.468 48.02 158.895 48.02C159.535 48.02 160.075 47.8333 160.515 47.46C160.955 47.0733 161.175 46.5333 161.175 45.84V44.94L160.015 44.98ZM170.165 50H167.185V34.8H170.165V50ZM177.214 54.2C176.827 54.2 176.487 54.1733 176.194 54.12C175.901 54.08 175.647 54.0333 175.434 53.98V51.46C175.647 51.5133 175.874 51.56 176.114 51.6C176.341 51.64 176.587 51.66 176.854 51.66C177.201 51.66 177.514 51.5933 177.794 51.46C178.087 51.3267 178.314 51.0733 178.474 50.7C178.634 50.3267 178.714 49.7933 178.714 49.1V35.72H181.734V49.08C181.734 50.3067 181.541 51.2933 181.154 52.04C180.781 52.8 180.254 53.3467 179.574 53.68C178.894 54.0267 178.107 54.2 177.214 54.2ZM195.115 39.08V50H192.835L192.435 48.6H192.275C192.048 48.9733 191.755 49.28 191.395 49.52C191.048 49.7467 190.662 49.9133 190.235 50.02C189.808 50.14 189.368 50.2 188.915 50.2C188.142 50.2 187.462 50.06 186.875 49.78C186.288 49.5 185.835 49.0667 185.515 48.48C185.195 47.8933 185.035 47.1333 185.035 46.2V39.08H188.015V45.46C188.015 46.2333 188.155 46.82 188.435 47.22C188.715 47.62 189.162 47.82 189.775 47.82C190.388 47.82 190.862 47.68 191.195 47.4C191.542 47.12 191.782 46.7133 191.915 46.18C192.062 45.6467 192.135 44.9933 192.135 44.22V39.08H195.115ZM205.86 46.76C205.86 47.4933 205.686 48.12 205.34 48.64C204.993 49.1467 204.473 49.5333 203.78 49.8C203.086 50.0667 202.226 50.2 201.2 50.2C200.44 50.2 199.786 50.1467 199.24 50.04C198.693 49.9467 198.146 49.7867 197.6 49.56V47.1C198.186 47.3667 198.82 47.5867 199.5 47.76C200.18 47.9333 200.78 48.02 201.3 48.02C201.886 48.02 202.3 47.9333 202.54 47.76C202.793 47.5867 202.92 47.36 202.92 47.08C202.92 46.8933 202.866 46.7267 202.76 46.58C202.666 46.4333 202.453 46.2667 202.12 46.08C201.786 45.8933 201.266 45.6533 200.56 45.36C199.88 45.0667 199.32 44.78 198.88 44.5C198.44 44.2067 198.113 43.86 197.9 43.46C197.686 43.0467 197.58 42.5333 197.58 41.92C197.58 40.9067 197.973 40.1467 198.76 39.64C199.546 39.1333 200.593 38.88 201.9 38.88C202.58 38.88 203.226 38.9467 203.84 39.08C204.453 39.2133 205.086 39.4333 205.74 39.74L204.84 41.88C204.48 41.72 204.133 41.58 203.8 41.46C203.466 41.34 203.14 41.2467 202.82 41.18C202.513 41.1133 202.193 41.08 201.86 41.08C201.42 41.08 201.086 41.14 200.86 41.26C200.646 41.38 200.54 41.56 200.54 41.8C200.54 41.9733 200.593 42.1333 200.7 42.28C200.82 42.4133 201.04 42.56 201.36 42.72C201.693 42.88 202.18 43.0933 202.82 43.36C203.446 43.6133 203.986 43.88 204.44 44.16C204.893 44.4267 205.24 44.7667 205.48 45.18C205.733 45.58 205.86 46.1067 205.86 46.76ZM212.781 47.82C213.114 47.82 213.434 47.7867 213.741 47.72C214.048 47.6533 214.354 47.5733 214.661 47.48V49.7C214.341 49.8333 213.941 49.9467 213.461 50.04C212.994 50.1467 212.481 50.2 211.921 50.2C211.268 50.2 210.681 50.0933 210.161 49.88C209.654 49.6667 209.248 49.3 208.941 48.78C208.648 48.2467 208.501 47.5133 208.501 46.58V41.32H207.081V40.06L208.721 39.06L209.581 36.76H211.481V39.08H214.541V41.32H211.481V46.58C211.481 46.9933 211.601 47.3067 211.841 47.52C212.081 47.72 212.394 47.82 212.781 47.82ZM219.833 39.08V50H216.853V39.08H219.833ZM218.353 34.8C218.793 34.8 219.173 34.9067 219.493 35.12C219.813 35.32 219.973 35.7 219.973 36.26C219.973 36.8067 219.813 37.1867 219.493 37.4C219.173 37.6133 218.793 37.72 218.353 37.72C217.9 37.72 217.513 37.6133 217.193 37.4C216.886 37.1867 216.733 36.8067 216.733 36.26C216.733 35.7 216.886 35.32 217.193 35.12C217.513 34.9067 217.9 34.8 218.353 34.8ZM227.387 50.2C226.307 50.2 225.387 50.0067 224.627 49.62C223.867 49.22 223.287 48.6067 222.887 47.78C222.487 46.9533 222.287 45.8933 222.287 44.6C222.287 43.2667 222.513 42.18 222.967 41.34C223.42 40.5 224.047 39.88 224.847 39.48C225.66 39.08 226.593 38.88 227.647 38.88C228.393 38.88 229.04 38.9533 229.587 39.1C230.147 39.2467 230.633 39.42 231.047 39.62L230.167 41.92C229.7 41.7333 229.26 41.58 228.847 41.46C228.447 41.34 228.047 41.28 227.647 41.28C227.127 41.28 226.693 41.4067 226.347 41.66C226 41.9 225.74 42.2667 225.567 42.76C225.407 43.24 225.327 43.8467 225.327 44.58C225.327 45.3 225.413 45.9 225.587 46.38C225.773 46.8467 226.04 47.2 226.387 47.44C226.733 47.6667 227.153 47.78 227.647 47.78C228.273 47.78 228.827 47.7 229.307 47.54C229.787 47.3667 230.253 47.1333 230.707 46.84V49.38C230.253 49.6733 229.773 49.88 229.267 50C228.773 50.1333 228.147 50.2 227.387 50.2ZM237.72 38.88C238.733 38.88 239.6 39.0733 240.32 39.46C241.053 39.8467 241.62 40.4067 242.02 41.14C242.42 41.8733 242.62 42.7733 242.62 43.84V45.28H235.58C235.607 46.12 235.853 46.78 236.32 47.26C236.8 47.74 237.46 47.98 238.3 47.98C239.007 47.98 239.647 47.9133 240.22 47.78C240.793 47.6333 241.387 47.4133 242 47.12V49.42C241.467 49.6867 240.9 49.88 240.3 50C239.713 50.1333 239 50.2 238.16 50.2C237.067 50.2 236.1 50 235.26 49.6C234.42 49.1867 233.76 48.5667 233.28 47.74C232.8 46.9133 232.56 45.8733 232.56 44.62C232.56 43.34 232.773 42.28 233.2 41.44C233.64 40.5867 234.247 39.9467 235.02 39.52C235.793 39.0933 236.693 38.88 237.72 38.88ZM237.74 41C237.167 41 236.687 41.1867 236.3 41.56C235.927 41.9333 235.707 42.5133 235.64 43.3H239.82C239.82 42.86 239.74 42.4667 239.58 42.12C239.433 41.7733 239.207 41.5 238.9 41.3C238.593 41.1 238.207 41 237.74 41ZM254.872 35.52C255.645 35.52 256.332 35.64 256.932 35.88C257.532 36.12 258.005 36.4733 258.352 36.94C258.699 37.3933 258.872 37.9533 258.872 38.62C258.872 39.54 258.599 40.3133 258.052 40.94C257.505 41.5667 256.825 42.1133 256.012 42.58L258.792 45.28C259.059 44.8267 259.292 44.3533 259.492 43.86C259.692 43.3533 259.859 42.8467 259.992 42.34H263.092C262.892 43.0867 262.599 43.8867 262.212 44.74C261.825 45.5933 261.332 46.3933 260.732 47.14L263.672 50H259.992L258.872 48.9C258.579 49.1 258.272 49.28 257.952 49.44C257.632 49.6 257.299 49.74 256.952 49.86C256.605 49.9667 256.239 50.0467 255.852 50.1C255.465 50.1667 255.065 50.2 254.652 50.2C253.572 50.2 252.645 50.0333 251.872 49.7C251.099 49.3533 250.505 48.8733 250.092 48.26C249.679 47.6467 249.472 46.94 249.472 46.14C249.472 45.46 249.572 44.88 249.772 44.4C249.985 43.9067 250.285 43.48 250.672 43.12C251.072 42.7467 251.545 42.4067 252.092 42.1C251.745 41.7 251.465 41.3267 251.252 40.98C251.052 40.62 250.905 40.2667 250.812 39.92C250.732 39.5733 250.692 39.2067 250.692 38.82C250.692 38.14 250.865 37.5533 251.212 37.06C251.572 36.5667 252.065 36.1867 252.692 35.92C253.332 35.6533 254.059 35.52 254.872 35.52ZM253.832 43.88C253.579 44.0667 253.359 44.26 253.172 44.46C252.999 44.66 252.859 44.8733 252.752 45.1C252.659 45.3267 252.612 45.58 252.612 45.86C252.612 46.4333 252.825 46.8867 253.252 47.22C253.679 47.54 254.212 47.7 254.852 47.7C255.279 47.7 255.679 47.6467 256.052 47.54C256.425 47.4333 256.765 47.2867 257.072 47.1L253.832 43.88ZM254.852 37.82C254.519 37.82 254.199 37.9067 253.892 38.08C253.599 38.24 253.452 38.5533 253.452 39.02C253.452 39.3533 253.532 39.6733 253.692 39.98C253.865 40.2867 254.092 40.6 254.372 40.92C254.932 40.6133 255.359 40.3067 255.652 40C255.959 39.6933 256.112 39.34 256.112 38.94C256.112 38.54 255.979 38.2533 255.712 38.08C255.445 37.9067 255.159 37.82 254.852 37.82ZM278.887 50H270.667V35.72H278.887V38.2H273.687V41.34H278.527V43.82H273.687V47.5H278.887V50ZM294.439 38.88C295.679 38.88 296.612 39.2 297.239 39.84C297.879 40.4667 298.199 41.48 298.199 42.88V50H295.219V43.62C295.219 42.8333 295.085 42.2467 294.819 41.86C294.552 41.46 294.139 41.26 293.579 41.26C292.792 41.26 292.232 41.54 291.899 42.1C291.565 42.66 291.399 43.4667 291.399 44.52V50H288.419V43.62C288.419 43.1 288.359 42.6667 288.239 42.32C288.119 41.9733 287.939 41.7133 287.699 41.54C287.459 41.3533 287.152 41.26 286.779 41.26C286.232 41.26 285.799 41.4 285.479 41.68C285.159 41.96 284.932 42.3667 284.799 42.9C284.665 43.4333 284.599 44.0867 284.599 44.86V50H281.619V39.08H283.899L284.299 40.48H284.459C284.685 40.1067 284.965 39.8067 285.299 39.58C285.632 39.34 285.999 39.1667 286.399 39.06C286.812 38.94 287.225 38.88 287.639 38.88C288.439 38.88 289.119 39.0133 289.679 39.28C290.239 39.5333 290.665 39.9333 290.959 40.48H291.219C291.552 39.92 292.012 39.5133 292.599 39.26C293.199 39.0067 293.812 38.88 294.439 38.88ZM307.347 38.88C308.574 38.88 309.567 39.36 310.327 40.32C311.087 41.2667 311.467 42.6667 311.467 44.52C311.467 45.76 311.287 46.8067 310.927 47.66C310.567 48.5 310.074 49.1333 309.447 49.56C308.82 49.9867 308.094 50.2 307.267 50.2C306.747 50.2 306.294 50.1333 305.907 50C305.534 49.8667 305.214 49.6933 304.947 49.48C304.68 49.2667 304.447 49.04 304.247 48.8H304.087C304.14 49.0533 304.18 49.32 304.207 49.6C304.234 49.8667 304.247 50.1333 304.247 50.4V54.8H301.267V39.08H303.687L304.107 40.5H304.247C304.447 40.2067 304.687 39.94 304.967 39.7C305.247 39.4467 305.58 39.2467 305.967 39.1C306.367 38.9533 306.827 38.88 307.347 38.88ZM306.387 41.26C305.867 41.26 305.454 41.3667 305.147 41.58C304.84 41.7933 304.614 42.12 304.467 42.56C304.334 42.9867 304.26 43.5267 304.247 44.18V44.5C304.247 45.2067 304.314 45.8067 304.447 46.3C304.58 46.78 304.807 47.1467 305.127 47.4C305.447 47.6533 305.88 47.78 306.427 47.78C306.88 47.78 307.254 47.6533 307.547 47.4C307.84 47.1467 308.06 46.7733 308.207 46.28C308.354 45.7867 308.427 45.1867 308.427 44.48C308.427 43.4133 308.26 42.6133 307.927 42.08C307.607 41.5333 307.094 41.26 306.387 41.26ZM323.843 44.52C323.843 45.4267 323.717 46.2333 323.463 46.94C323.223 47.6467 322.87 48.2467 322.403 48.74C321.95 49.22 321.397 49.5867 320.743 49.84C320.09 50.08 319.35 50.2 318.523 50.2C317.763 50.2 317.057 50.08 316.403 49.84C315.763 49.5867 315.21 49.22 314.743 48.74C314.277 48.2467 313.91 47.6467 313.643 46.94C313.39 46.2333 313.263 45.4267 313.263 44.52C313.263 43.3067 313.477 42.2867 313.903 41.46C314.33 40.62 314.943 39.98 315.743 39.54C316.543 39.1 317.49 38.88 318.583 38.88C319.61 38.88 320.517 39.1 321.303 39.54C322.09 39.98 322.71 40.62 323.163 41.46C323.617 42.2867 323.843 43.3067 323.843 44.52ZM316.303 44.52C316.303 45.24 316.377 45.8467 316.523 46.34C316.683 46.82 316.93 47.1867 317.263 47.44C317.597 47.68 318.03 47.8 318.563 47.8C319.097 47.8 319.523 47.68 319.843 47.44C320.177 47.1867 320.417 46.82 320.563 46.34C320.723 45.8467 320.803 45.24 320.803 44.52C320.803 43.8 320.723 43.2 320.563 42.72C320.417 42.24 320.177 41.88 319.843 41.64C319.51 41.4 319.077 41.28 318.543 41.28C317.757 41.28 317.183 41.5533 316.823 42.1C316.477 42.6333 316.303 43.44 316.303 44.52ZM334.055 46.18C334.002 45.9533 333.922 45.62 333.815 45.18C333.722 44.7267 333.615 44.2467 333.495 43.74C333.375 43.22 333.262 42.7467 333.155 42.32C333.049 41.88 332.975 41.56 332.935 41.36H332.855C332.815 41.56 332.742 41.88 332.635 42.32C332.542 42.7467 332.435 43.22 332.315 43.74C332.195 44.2467 332.082 44.7267 331.975 45.18C331.869 45.6333 331.789 45.98 331.735 46.22L330.855 50H327.655L324.555 39.08H327.515L328.775 43.92C328.869 44.2533 328.949 44.6533 329.015 45.12C329.095 45.5867 329.169 46.04 329.235 46.48C329.302 46.9067 329.349 47.2467 329.375 47.5H329.455C329.469 47.3133 329.495 47.0667 329.535 46.76C329.575 46.44 329.622 46.1133 329.675 45.78C329.742 45.4467 329.795 45.1467 329.835 44.88C329.889 44.6 329.929 44.4133 329.955 44.32L331.295 39.08H334.575L335.855 44.32C335.909 44.5067 335.969 44.8067 336.035 45.22C336.115 45.6333 336.182 46.0533 336.235 46.48C336.302 46.9067 336.335 47.2467 336.335 47.5H336.415C336.442 47.2733 336.489 46.9467 336.555 46.52C336.622 46.08 336.695 45.62 336.775 45.14C336.869 44.66 336.962 44.2533 337.055 43.92L338.355 39.08H341.275L338.135 50H334.895L334.055 46.18ZM347.544 38.88C348.558 38.88 349.424 39.0733 350.144 39.46C350.878 39.8467 351.444 40.4067 351.844 41.14C352.244 41.8733 352.444 42.7733 352.444 43.84V45.28H345.404C345.431 46.12 345.678 46.78 346.144 47.26C346.624 47.74 347.284 47.98 348.124 47.98C348.831 47.98 349.471 47.9133 350.044 47.78C350.618 47.6333 351.211 47.4133 351.824 47.12V49.42C351.291 49.6867 350.724 49.88 350.124 50C349.538 50.1333 348.824 50.2 347.984 50.2C346.891 50.2 345.924 50 345.084 49.6C344.244 49.1867 343.584 48.5667 343.104 47.74C342.624 46.9133 342.384 45.8733 342.384 44.62C342.384 43.34 342.598 42.28 343.024 41.44C343.464 40.5867 344.071 39.9467 344.844 39.52C345.618 39.0933 346.518 38.88 347.544 38.88ZM347.564 41C346.991 41 346.511 41.1867 346.124 41.56C345.751 41.9333 345.531 42.5133 345.464 43.3H349.644C349.644 42.86 349.564 42.4667 349.404 42.12C349.258 41.7733 349.031 41.5 348.724 41.3C348.418 41.1 348.031 41 347.564 41ZM360.961 38.88C361.107 38.88 361.281 38.8867 361.481 38.9C361.681 38.9133 361.841 38.9333 361.961 38.96L361.741 41.76C361.647 41.7333 361.507 41.7133 361.321 41.7C361.147 41.6733 360.994 41.66 360.861 41.66C360.474 41.66 360.101 41.7133 359.741 41.82C359.381 41.9133 359.054 42.0667 358.761 42.28C358.481 42.4933 358.254 42.78 358.081 43.14C357.921 43.4867 357.841 43.92 357.841 44.44V50H354.861V39.08H357.121L357.561 40.92H357.701C357.914 40.5467 358.181 40.2067 358.501 39.9C358.821 39.5933 359.187 39.3467 359.601 39.16C360.027 38.9733 360.481 38.88 360.961 38.88ZM376.763 38.88C378.003 38.88 378.936 39.2 379.563 39.84C380.203 40.4667 380.523 41.48 380.523 42.88V50H377.543V43.62C377.543 42.8333 377.409 42.2467 377.143 41.86C376.876 41.46 376.463 41.26 375.903 41.26C375.116 41.26 374.556 41.54 374.223 42.1C373.889 42.66 373.723 43.4667 373.723 44.52V50H370.743V43.62C370.743 43.1 370.683 42.6667 370.563 42.32C370.443 41.9733 370.263 41.7133 370.023 41.54C369.783 41.3533 369.476 41.26 369.103 41.26C368.556 41.26 368.123 41.4 367.803 41.68C367.483 41.96 367.256 42.3667 367.123 42.9C366.989 43.4333 366.923 44.0867 366.923 44.86V50H363.943V39.08H366.223L366.623 40.48H366.783C367.009 40.1067 367.289 39.8067 367.623 39.58C367.956 39.34 368.323 39.1667 368.723 39.06C369.136 38.94 369.549 38.88 369.963 38.88C370.763 38.88 371.443 39.0133 372.003 39.28C372.563 39.5333 372.989 39.9333 373.283 40.48H373.543C373.876 39.92 374.336 39.5133 374.923 39.26C375.523 39.0067 376.136 38.88 376.763 38.88ZM388.091 38.88C389.105 38.88 389.971 39.0733 390.691 39.46C391.425 39.8467 391.991 40.4067 392.391 41.14C392.791 41.8733 392.991 42.7733 392.991 43.84V45.28H385.951C385.978 46.12 386.225 46.78 386.691 47.26C387.171 47.74 387.831 47.98 388.671 47.98C389.378 47.98 390.018 47.9133 390.591 47.78C391.165 47.6333 391.758 47.4133 392.371 47.12V49.42C391.838 49.6867 391.271 49.88 390.671 50C390.085 50.1333 389.371 50.2 388.531 50.2C387.438 50.2 386.471 50 385.631 49.6C384.791 49.1867 384.131 48.5667 383.651 47.74C383.171 46.9133 382.931 45.8733 382.931 44.62C382.931 43.34 383.145 42.28 383.571 41.44C384.011 40.5867 384.618 39.9467 385.391 39.52C386.165 39.0933 387.065 38.88 388.091 38.88ZM388.111 41C387.538 41 387.058 41.1867 386.671 41.56C386.298 41.9333 386.078 42.5133 386.011 43.3H390.191C390.191 42.86 390.111 42.4667 389.951 42.12C389.805 41.7733 389.578 41.5 389.271 41.3C388.965 41.1 388.578 41 388.111 41ZM401.608 38.88C402.781 38.88 403.721 39.2 404.428 39.84C405.134 40.4667 405.488 41.48 405.488 42.88V50H402.508V43.62C402.508 42.8333 402.368 42.2467 402.088 41.86C401.808 41.46 401.361 41.26 400.748 41.26C399.841 41.26 399.221 41.5733 398.888 42.2C398.554 42.8133 398.388 43.7 398.388 44.86V50H395.408V39.08H397.688L398.088 40.48H398.248C398.488 40.1067 398.781 39.8067 399.128 39.58C399.474 39.34 399.861 39.1667 400.288 39.06C400.714 38.94 401.154 38.88 401.608 38.88ZM413.152 47.82C413.486 47.82 413.806 47.7867 414.112 47.72C414.419 47.6533 414.726 47.5733 415.032 47.48V49.7C414.712 49.8333 414.312 49.9467 413.832 50.04C413.366 50.1467 412.852 50.2 412.292 50.2C411.639 50.2 411.052 50.0933 410.532 49.88C410.026 49.6667 409.619 49.3 409.312 48.78C409.019 48.2467 408.872 47.5133 408.872 46.58V41.32H407.452V40.06L409.092 39.06L409.952 36.76H411.852V39.08H414.912V41.32H411.852V46.58C411.852 46.9933 411.972 47.3067 412.212 47.52C412.452 47.72 412.766 47.82 413.152 47.82Z" fill="#374151"/>
</svg>
