<svg width="40" height="40" viewBox="0 0 40 40" fill="none" xmlns="http://www.w3.org/2000/svg">
<path d="M6 0.5H34C37.0376 0.5 39.5 2.96243 39.5 6V34C39.5 37.0376 37.0376 39.5 34 39.5H6C2.96243 39.5 0.5 37.0376 0.5 34V6C0.5 2.96243 2.96243 0.5 6 0.5Z" fill="#E5EFF9"/>
<path d="M6 0.5H34C37.0376 0.5 39.5 2.96243 39.5 6V34C39.5 37.0376 37.0376 39.5 34 39.5H6C2.96243 39.5 0.5 37.0376 0.5 34V6C0.5 2.96243 2.96243 0.5 6 0.5Z" stroke="#9CBFE3"/>
<mask id="mask0_2777_53106" style="mask-type:alpha" maskUnits="userSpaceOnUse" x="8" y="8" width="24" height="24">
<rect x="8" y="8" width="24" height="24" fill="#D9D9D9"/>
</mask>
<g mask="url(#mask0_2777_53106)">
<path d="M15.3077 30.5C14.8091 30.5 14.3831 30.3234 14.0298 29.9703C13.6766 29.6169 13.5 29.1909 13.5 28.6923V11.3077C13.5 10.8026 13.675 10.375 14.025 10.025C14.375 9.675 14.8026 9.5 15.3077 9.5H24.7308C25.2294 9.5 25.6553 9.67658 26.0085 10.0298C26.3618 10.3831 26.5385 10.8091 26.5385 11.3077V14.4655C26.8128 14.5372 27.0417 14.6804 27.225 14.8952C27.4083 15.1099 27.5 15.3596 27.5 15.6443V17.5288C27.5 17.8134 27.4083 18.0632 27.225 18.278C27.0417 18.4927 26.8128 18.6359 26.5385 18.7078V28.6923C26.5385 29.1909 26.3618 29.6169 26.0085 29.9703C25.6553 30.3234 25.2294 30.5 24.7308 30.5H15.3077ZM15.3077 29H24.7308C24.8204 29 24.8942 28.9712 24.952 28.9135C25.0097 28.8558 25.0385 28.7821 25.0385 28.6923V11.3077C25.0385 11.2179 25.0097 11.1442 24.952 11.0865C24.8942 11.0288 24.8204 11 24.7308 11H15.3077C15.2179 11 15.1442 11.0288 15.0865 11.0865C15.0288 11.1442 15 11.2179 15 11.3077V28.6923C15 28.7821 15.0288 28.8558 15.0865 28.9135C15.1442 28.9712 15.2179 29 15.3077 29ZM20.0192 14.1538C20.2706 14.1538 20.4808 14.0692 20.65 13.9C20.8192 13.7308 20.9038 13.5206 20.9038 13.2693C20.9038 13.0179 20.8192 12.8077 20.65 12.6385C20.4808 12.4693 20.2706 12.3848 20.0192 12.3848C19.7679 12.3848 19.5577 12.4693 19.3885 12.6385C19.2193 12.8077 19.1348 13.0179 19.1348 13.2693C19.1348 13.5206 19.2193 13.7308 19.3885 13.9C19.5577 14.0692 19.7679 14.1538 20.0192 14.1538Z" fill="#003366"/>
</g>
</svg>
