<svg width="16" height="16" viewBox="0 0 16 16" fill="none" xmlns="http://www.w3.org/2000/svg">
<mask id="mask0_3978_13104" style="mask-type:alpha" maskUnits="userSpaceOnUse" x="0" y="0" width="16" height="16">
<rect width="16" height="16" fill="#D9D9D9"/>
</mask>
<g mask="url(#mask0_3978_13104)">
<path d="M6.91813 9.06964L3.08863 7.51847C2.95696 7.46714 2.86207 7.38886 2.80396 7.28364C2.74585 7.17853 2.7168 7.07086 2.7168 6.96064C2.7168 6.85042 2.74863 6.74231 2.8123 6.63631C2.87596 6.53042 2.97363 6.45181 3.1053 6.40047L12.232 2.98314C12.3509 2.93314 12.4661 2.92336 12.5776 2.95381C12.6892 2.98425 12.7855 3.04003 12.8666 3.12114C12.9477 3.20225 13.0035 3.29858 13.034 3.41014C13.0644 3.5217 13.0545 3.63686 13.0043 3.75564L9.57363 12.8783C9.52352 13.007 9.4458 13.1035 9.34046 13.168C9.23513 13.2323 9.1273 13.2645 9.01696 13.2645C8.90663 13.2645 8.7983 13.2342 8.69196 13.1738C8.58563 13.1132 8.50713 13.0174 8.45646 12.8863L6.91813 9.06964ZM8.99496 11.5595L11.772 4.21581L4.41546 6.97997L7.68213 8.29281L8.99496 11.5595Z" fill="white"/>
</g>
</svg>
