<svg width="56" height="56" viewBox="0 0 56 56" fill="none" xmlns="http://www.w3.org/2000/svg">
<path d="M8 0.5H48C52.1421 0.5 55.5 3.85786 55.5 8V48C55.5 52.1421 52.1421 55.5 48 55.5H8C3.85786 55.5 0.5 52.1421 0.5 48V8C0.5 3.85786 3.85786 0.5 8 0.5Z" stroke="#9CA3AF"/>
<mask id="mask0_2777_53113" style="mask-type:alpha" maskUnits="userSpaceOnUse" x="12" y="12" width="32" height="32">
<rect x="12" y="12" width="32" height="32" fill="#003366"/>
</mask>
<g mask="url(#mask0_2777_53113)">
<path d="M23.077 39.3335C22.4141 39.3335 21.8467 39.0975 21.3747 38.6255C20.9027 38.1535 20.6667 37.586 20.6667 36.9231V34.0001H18.1284C17.4655 34.0001 16.898 33.7641 16.426 33.2921C15.954 32.8201 15.718 32.2527 15.718 31.5898V26.4105C15.718 25.466 16.0407 24.6744 16.686 24.0355C17.3314 23.3966 18.1198 23.0771 19.0514 23.0771H36.9487C37.8931 23.0771 38.6848 23.3966 39.3237 24.0355C39.9626 24.6744 40.282 25.466 40.282 26.4105V31.5898C40.282 32.2527 40.046 32.8201 39.574 33.2921C39.102 33.7641 38.5346 34.0001 37.8717 34.0001H35.3334V36.9231C35.3334 37.586 35.0974 38.1535 34.6254 38.6255C34.1534 39.0975 33.5859 39.3335 32.923 39.3335H23.077ZM18.1284 32.0001H20.6667C20.6838 31.3524 20.9258 30.7973 21.3927 30.3348C21.8598 29.8724 22.4212 29.6411 23.077 29.6411H32.923C33.5788 29.6411 34.1401 29.8724 34.607 30.3348C35.0741 30.7973 35.3162 31.3524 35.3334 32.0001H37.8717C37.9915 32.0001 38.0898 31.9617 38.1667 31.8848C38.2436 31.8079 38.282 31.7096 38.282 31.5898V26.4105C38.282 26.0327 38.1542 25.716 37.8987 25.4605C37.6431 25.2049 37.3265 25.0771 36.9487 25.0771H19.0514C18.6736 25.0771 18.3569 25.2049 18.1014 25.4605C17.8458 25.716 17.718 26.0327 17.718 26.4105V31.5898C17.718 31.7096 17.7565 31.8079 17.8334 31.8848C17.9102 31.9617 18.0086 32.0001 18.1284 32.0001ZM33.3334 23.0771V19.4875C33.3334 19.3677 33.2949 19.2694 33.218 19.1925C33.1411 19.1156 33.0428 19.0771 32.923 19.0771H23.077C22.9572 19.0771 22.8589 19.1156 22.782 19.1925C22.7051 19.2694 22.6667 19.3677 22.6667 19.4875V23.0771H20.6667V19.4875C20.6667 18.8246 20.9027 18.2571 21.3747 17.7851C21.8467 17.3131 22.4141 17.0771 23.077 17.0771H32.923C33.5859 17.0771 34.1534 17.3131 34.6254 17.7851C35.0974 18.2571 35.3334 18.8246 35.3334 19.4875V23.0771H33.3334ZM35.7437 28.4105C36.1215 28.4105 36.4381 28.2827 36.6937 28.0271C36.9492 27.7716 37.077 27.4549 37.077 27.0771C37.077 26.6994 36.9492 26.3827 36.6937 26.1271C36.4381 25.8716 36.1215 25.7438 35.7437 25.7438C35.3659 25.7438 35.0492 25.8716 34.7937 26.1271C34.5381 26.3827 34.4104 26.6994 34.4104 27.0771C34.4104 27.4549 34.5381 27.7716 34.7937 28.0271C35.0492 28.2827 35.3659 28.4105 35.7437 28.4105ZM33.3334 36.9231V32.0515C33.3334 31.9317 33.2949 31.8334 33.218 31.7565C33.1411 31.6796 33.0428 31.6411 32.923 31.6411H23.077C22.9572 31.6411 22.8589 31.6796 22.782 31.7565C22.7051 31.8334 22.6667 31.9317 22.6667 32.0515V36.9231C22.6667 37.0429 22.7051 37.1413 22.782 37.2181C22.8589 37.295 22.9572 37.3335 23.077 37.3335H32.923C33.0428 37.3335 33.1411 37.295 33.218 37.2181C33.2949 37.1413 33.3334 37.0429 33.3334 36.9231Z" fill="#003366"/>
</g>
</svg>
