<svg width="20" height="20" viewBox="0 0 20 20" fill="none" xmlns="http://www.w3.org/2000/svg">
<mask id="mask0_4117_2675" style="mask-type:alpha" maskUnits="userSpaceOnUse" x="0" y="0" width="20" height="20">
<rect width="20" height="20" fill="#D9D9D9"/>
</mask>
<g mask="url(#mask0_4117_2675)">
<path d="M9.41941 12.5111L5.60688 8.69888C5.55445 8.64626 5.51312 8.58748 5.48287 8.52255C5.45262 8.45782 5.4375 8.38836 5.4375 8.31415C5.4375 8.16595 5.48761 8.0371 5.58782 7.92761C5.68804 7.81832 5.82011 7.76367 5.98405 7.76367H14.0156C14.1796 7.76367 14.3116 7.81892 14.4119 7.92942C14.5121 8.03972 14.5622 8.16847 14.5622 8.31567C14.5622 8.35257 14.5056 8.4803 14.3925 8.69888L10.5803 12.5111C10.4927 12.5988 10.4022 12.6629 10.3087 12.7032C10.2151 12.7435 10.1122 12.7637 9.99984 12.7637C9.88752 12.7637 9.78459 12.7435 9.69102 12.7032C9.59746 12.6629 9.50693 12.5988 9.41941 12.5111Z" fill="#374151"/>
</g>
</svg>
