<svg width="36" height="36" viewBox="0 0 36 36" fill="none" xmlns="http://www.w3.org/2000/svg">
<path d="M0 4C0 1.79086 1.79086 0 4 0H32C34.2091 0 36 1.79086 36 4V32C36 34.2091 34.2091 36 32 36H4C1.79086 36 0 34.2091 0 32V4Z" fill="#FDECEA"/>
<mask id="mask0_2777_53936" style="mask-type:alpha" maskUnits="userSpaceOnUse" x="8" y="8" width="20" height="20">
<rect x="8" y="8" width="20" height="20" fill="#D9D9D9"/>
</mask>
<g mask="url(#mask0_2777_53936)">
<path d="M14.9139 25.294C13.9504 24.8784 13.1124 24.3145 12.3997 23.6021C11.6871 22.8897 11.1229 22.052 10.707 21.089C10.2913 20.1259 10.0835 19.097 10.0835 18.0021C10.0835 16.9071 10.2913 15.8779 10.7068 14.9144C11.1224 13.9509 11.6863 13.1129 12.3987 12.4002C13.1111 11.6876 13.9488 11.1234 14.9118 10.7075C15.8749 10.2918 16.9038 10.084 17.9987 10.084C19.0937 10.084 20.1229 10.2918 21.0864 10.7073C22.0499 11.1229 22.8879 11.6868 23.6006 12.3992C24.3132 13.1116 24.8775 13.9493 25.2933 14.9123C25.709 15.8754 25.9168 16.9043 25.9168 17.9992C25.9168 19.0942 25.7091 20.1234 25.2935 21.0869C24.8779 22.0504 24.314 22.8884 23.6016 23.6011C22.8893 24.3137 22.0516 24.8779 21.0885 25.2938C20.1254 25.7095 19.0965 25.9173 18.0016 25.9173C16.9066 25.9173 15.8774 25.7095 14.9139 25.294ZM22.7293 22.7298C24.021 21.4382 24.6668 19.8618 24.6668 18.0007C24.6668 16.1395 24.021 14.5632 22.7293 13.2715C21.4377 11.9798 19.8613 11.334 18.0002 11.334C16.1391 11.334 14.5627 11.9798 13.271 13.2715C11.9793 14.5632 11.3335 16.1395 11.3335 18.0007C11.3335 19.8618 11.9793 21.4382 13.271 22.7298C14.5627 24.0215 16.1391 24.6673 18.0002 24.6673C19.8613 24.6673 21.4377 24.0215 22.7293 22.7298ZM14.755 21.2477C13.8629 20.3569 13.4168 19.2752 13.4168 18.0025C13.4168 16.7299 13.8622 15.6475 14.7531 14.7554C15.6439 13.8634 16.7256 13.4173 17.9983 13.4173C19.2709 13.4173 20.3533 13.8627 21.2454 14.7536C22.1375 15.6444 22.5835 16.7261 22.5835 17.9988C22.5835 19.2714 22.1381 20.3538 21.2472 21.2459C20.3564 22.1379 19.2747 22.584 18.002 22.584C16.7294 22.584 15.647 22.1386 14.755 21.2477ZM20.3543 20.3548C21.0071 19.702 21.3335 18.9173 21.3335 18.0007C21.3335 17.084 21.0071 16.2993 20.3543 15.6465C19.7016 14.9937 18.9168 14.6673 18.0002 14.6673C17.0835 14.6673 16.2988 14.9937 15.646 15.6465C14.9932 16.2993 14.6668 17.084 14.6668 18.0007C14.6668 18.9173 14.9932 19.702 15.646 20.3548C16.2988 21.0076 17.0835 21.334 18.0002 21.334C18.9168 21.334 19.7016 21.0076 20.3543 20.3548ZM17.1195 18.8813C16.8733 18.635 16.7502 18.3415 16.7502 18.0007C16.7502 17.6598 16.8733 17.3663 17.1195 17.12C17.3658 16.8738 17.6593 16.7507 18.0002 16.7507C18.341 16.7507 18.6345 16.8738 18.8808 17.12C19.127 17.3663 19.2502 17.6598 19.2502 18.0007C19.2502 18.3415 19.127 18.635 18.8808 18.8813C18.6345 19.1275 18.341 19.2507 18.0002 19.2507C17.6593 19.2507 17.3658 19.1275 17.1195 18.8813Z" fill="#D64539"/>
</g>
</svg>
