<svg width="20" height="20" viewBox="0 0 20 20" fill="none" xmlns="http://www.w3.org/2000/svg">
<mask id="mask0_2777_53937" style="mask-type:alpha" maskUnits="userSpaceOnUse" x="0" y="0" width="20" height="20">
<rect width="20" height="20" fill="#D9D9D9"/>
</mask>
<g mask="url(#mask0_2777_53937)">
<path d="M6.91391 17.294C5.95044 16.8784 5.11238 16.3145 4.39975 15.6021C3.68711 14.8897 3.12287 14.052 2.70704 13.089C2.29134 12.1259 2.0835 11.097 2.0835 10.0021C2.0835 8.90711 2.29127 7.87787 2.70683 6.9144C3.12238 5.95093 3.68634 5.11287 4.3987 4.40023C5.11107 3.6876 5.94877 3.12336 6.91183 2.70753C7.87489 2.29183 8.90384 2.08398 9.9987 2.08398C11.0937 2.08398 12.1229 2.29176 13.0864 2.70732C14.0499 3.12287 14.8879 3.68683 15.6006 4.39919C16.3132 5.11155 16.8775 5.94926 17.2933 6.91232C17.709 7.87537 17.9168 8.90433 17.9168 9.99919C17.9168 11.0942 17.7091 12.1234 17.2935 13.0869C16.8779 14.0504 16.314 14.8884 15.6016 15.6011C14.8893 16.3137 14.0516 16.8779 13.0885 17.2938C12.1254 17.7095 11.0965 17.9173 10.0016 17.9173C8.90662 17.9173 7.87738 17.7095 6.91391 17.294ZM14.7293 14.7298C16.021 13.4382 16.6668 11.8618 16.6668 10.0007C16.6668 8.13954 16.021 6.56315 14.7293 5.27148C13.4377 3.97982 11.8613 3.33398 10.0002 3.33398C8.13905 3.33398 6.56266 3.97982 5.271 5.27148C3.97933 6.56315 3.3335 8.13954 3.3335 10.0007C3.3335 11.8618 3.97933 13.4382 5.271 14.7298C6.56266 16.0215 8.13905 16.6673 10.0002 16.6673C11.8613 16.6673 13.4377 16.0215 14.7293 14.7298ZM6.75495 13.2477C5.86287 12.3569 5.41683 11.2752 5.41683 10.0025C5.41683 8.72989 5.86225 7.64753 6.75308 6.75544C7.64391 5.86336 8.72565 5.41732 9.99829 5.41732C11.2709 5.41732 12.3533 5.86273 13.2454 6.75357C14.1375 7.6444 14.5835 8.72614 14.5835 9.99878C14.5835 11.2714 14.1381 12.3538 13.2472 13.2459C12.3564 14.1379 11.2747 14.584 10.002 14.584C8.7294 14.584 7.64704 14.1386 6.75495 13.2477ZM12.3543 12.3548C13.0071 11.702 13.3335 10.9173 13.3335 10.0007C13.3335 9.08398 13.0071 8.29926 12.3543 7.64648C11.7016 6.99371 10.9168 6.66732 10.0002 6.66732C9.0835 6.66732 8.29877 6.99371 7.646 7.64648C6.99322 8.29926 6.66683 9.08398 6.66683 10.0007C6.66683 10.9173 6.99322 11.702 7.646 12.3548C8.29877 13.0076 9.0835 13.334 10.0002 13.334C10.9168 13.334 11.7016 13.0076 12.3543 12.3548ZM9.11954 10.8813C8.87329 10.635 8.75016 10.3415 8.75016 10.0007C8.75016 9.65982 8.87329 9.36628 9.11954 9.12003C9.36579 8.87378 9.65933 8.75065 10.0002 8.75065C10.341 8.75065 10.6345 8.87378 10.8808 9.12003C11.127 9.36628 11.2502 9.65982 11.2502 10.0007C11.2502 10.3415 11.127 10.635 10.8808 10.8813C10.6345 11.1275 10.341 11.2507 10.0002 11.2507C9.65933 11.2507 9.36579 11.1275 9.11954 10.8813Z" fill="#D64539"/>
</g>
</svg>
