<svg width="40" height="40" viewBox="0 0 40 40" fill="none" xmlns="http://www.w3.org/2000/svg">
<path d="M6 0.5H34C37.0376 0.5 39.5 2.96243 39.5 6V34C39.5 37.0376 37.0376 39.5 34 39.5H6C2.96243 39.5 0.5 37.0376 0.5 34V6C0.5 2.96243 2.96243 0.5 6 0.5Z" fill="#E5EFF9"/>
<path d="M6 0.5H34C37.0376 0.5 39.5 2.96243 39.5 6V34C39.5 37.0376 37.0376 39.5 34 39.5H6C2.96243 39.5 0.5 37.0376 0.5 34V6C0.5 2.96243 2.96243 0.5 6 0.5Z" stroke="#9CBFE3"/>
<path d="M21.941 18.392L29.5356 9.5H27.7355L21.1431 17.2205L15.875 9.5H9.80005L17.765 21.176L9.80005 30.5H11.6L18.563 22.346L24.1266 30.5H30.2015L21.941 18.392ZM19.4766 21.278L18.6695 20.1155L12.248 10.865H15.0125L20.1935 18.3305L21.0005 19.493L27.7371 29.198H24.9725L19.4766 21.278Z" fill="#003366"/>
</svg>
