<svg width="16" height="16" viewBox="0 0 16 16" fill="none" xmlns="http://www.w3.org/2000/svg">
<mask id="mask0_4117_5868" style="mask-type:alpha" maskUnits="userSpaceOnUse" x="0" y="0" width="16" height="16">
<rect width="16" height="16" fill="#D9D9D9"/>
</mask>
<g mask="url(#mask0_4117_5868)">
<path d="M11.6665 12.3793V13.5998C11.6665 13.7417 11.6186 13.8605 11.5228 13.9562C11.4272 14.0519 11.3084 14.0998 11.1665 14.0998C11.0246 14.0998 10.9058 14.0519 10.8102 13.9562C10.7144 13.8605 10.6665 13.7417 10.6665 13.5998V11.4742C10.6665 11.2477 10.7445 11.0565 10.9005 10.9005C11.0565 10.7445 11.2477 10.6665 11.4742 10.6665H13.5998C13.7417 10.6665 13.8605 10.7144 13.9562 10.8102C14.0519 10.9058 14.0998 11.0246 14.0998 11.1665C14.0998 11.3084 14.0519 11.4272 13.9562 11.5228C13.8605 11.6186 13.7417 11.6665 13.5998 11.6665H12.3627L14.1512 13.455C14.2434 13.5472 14.2895 13.6615 14.2895 13.7978C14.2895 13.9342 14.2434 14.0519 14.1512 14.1512C14.0519 14.2545 13.9331 14.3051 13.7947 14.303C13.6562 14.3009 13.5374 14.2503 13.4383 14.1512L11.6665 12.3793ZM7.99984 14.3332C7.12462 14.3332 6.30178 14.1667 5.53134 13.8338C4.76078 13.5009 4.09045 13.0494 3.52034 12.4793C2.95023 11.9092 2.49873 11.2389 2.16584 10.4683C1.83295 9.69789 1.6665 8.87506 1.6665 7.99984C1.6665 7.12462 1.83295 6.30178 2.16584 5.53134C2.49873 4.76078 2.95023 4.09045 3.52034 3.52034C4.09045 2.95023 4.76078 2.49873 5.53134 2.16584C6.30178 1.83295 7.12462 1.6665 7.99984 1.6665C8.87506 1.6665 9.69789 1.83295 10.4683 2.16584C11.2389 2.49873 11.9092 2.95023 12.4793 3.52034C13.0494 4.09045 13.5009 4.76078 13.8338 5.53134C14.1667 6.30178 14.3332 7.12462 14.3332 7.99984C14.3332 8.11517 14.3304 8.2395 14.3248 8.37284C14.3193 8.50617 14.3088 8.63056 14.2933 8.746C14.2754 8.88789 14.2158 8.99984 14.1145 9.08184C14.0133 9.16395 13.8883 9.205 13.7395 9.205C13.6087 9.205 13.4972 9.14856 13.405 9.03567C13.3127 8.92289 13.2755 8.799 13.2935 8.664C13.3157 8.54856 13.3279 8.43784 13.33 8.33184C13.3321 8.22584 13.3332 8.11517 13.3332 7.99984C13.3332 7.75628 13.3172 7.51378 13.2852 7.27234C13.2531 7.03078 13.2028 6.79039 13.1345 6.55117H10.6562C10.6981 6.79039 10.7284 7.03078 10.7473 7.27234C10.7661 7.51378 10.7755 7.75628 10.7755 7.99984C10.7755 8.11517 10.7744 8.23784 10.7723 8.36784C10.7701 8.49773 10.7634 8.62034 10.7523 8.73567C10.7344 8.87756 10.6759 8.99123 10.5767 9.07667C10.4776 9.16223 10.3571 9.205 10.2152 9.205C10.0844 9.205 9.97011 9.152 9.87234 9.046C9.77445 8.94 9.73445 8.8195 9.75234 8.6845C9.76345 8.56906 9.77011 8.45495 9.77234 8.34217C9.77445 8.22928 9.7755 8.11517 9.7755 7.99984C9.7755 7.75628 9.76611 7.51378 9.74734 7.27234C9.72845 7.03078 9.69812 6.79039 9.65634 6.55117H6.34334C6.30156 6.79039 6.27123 7.03078 6.25234 7.27234C6.23356 7.51378 6.22417 7.75628 6.22417 7.99984C6.22417 8.24339 6.23356 8.48589 6.25234 8.72734C6.27123 8.96889 6.30156 9.20928 6.34334 9.4485H8.29467C8.43656 9.4485 8.55539 9.49639 8.65117 9.59217C8.74684 9.68784 8.79467 9.80662 8.79467 9.9485C8.79467 10.0904 8.74684 10.2092 8.65117 10.305C8.55539 10.4007 8.43656 10.4485 8.29467 10.4485H6.57284C6.71906 10.9733 6.90945 11.4765 7.144 11.9582C7.37867 12.4398 7.66395 12.8934 7.99984 13.319C8.1195 13.319 8.23917 13.3197 8.35884 13.321C8.4785 13.3222 8.596 13.3152 8.71134 13.2998C8.849 13.2818 8.96395 13.3173 9.05617 13.4062C9.1485 13.4951 9.19467 13.6083 9.19467 13.746C9.19467 13.8947 9.15645 14.0186 9.08 14.1178C9.00345 14.2169 8.89423 14.2754 8.75234 14.2933C8.637 14.3088 8.51267 14.3193 8.37934 14.3248C8.246 14.3304 8.1195 14.3332 7.99984 14.3332ZM2.86517 9.4485H5.3435C5.30162 9.20928 5.27123 8.96889 5.25234 8.72734C5.23356 8.48589 5.22417 8.24339 5.22417 7.99984C5.22417 7.75628 5.23356 7.51378 5.25234 7.27234C5.27123 7.03078 5.30162 6.79039 5.3435 6.55117H2.86517C2.79684 6.79039 2.74662 7.03078 2.7145 7.27234C2.6825 7.51378 2.6665 7.75628 2.6665 7.99984C2.6665 8.24339 2.6825 8.48589 2.7145 8.72734C2.74662 8.96889 2.79684 9.20928 2.86517 9.4485ZM6.70884 13.1485C6.4405 12.7323 6.20995 12.2981 6.01717 11.846C5.82439 11.3939 5.66734 10.9281 5.546 10.4485H3.2845C3.63228 11.1348 4.10406 11.7139 4.69984 12.1857C5.29562 12.6576 5.96528 12.9785 6.70884 13.1485ZM3.2845 5.55117H5.546C5.65878 5.06739 5.8105 4.59945 6.00117 4.14734C6.19173 3.69511 6.42762 3.26306 6.70884 2.85117C5.96095 3.01695 5.29023 3.33573 4.69667 3.8075C4.103 4.27928 3.63228 4.8605 3.2845 5.55117ZM6.57284 5.55117H9.42684C9.28495 5.02639 9.09345 4.52534 8.85234 4.048C8.61134 3.57056 8.32717 3.11478 7.99984 2.68067C7.66817 3.10623 7.38289 3.55984 7.144 4.0415C6.90512 4.52317 6.71473 5.02639 6.57284 5.55117ZM10.4537 5.55117H12.7152C12.3674 4.8605 11.8967 4.27823 11.303 3.80434C10.7094 3.33034 10.0387 3.01262 9.29084 2.85117C9.55917 3.26739 9.7865 3.70261 9.97284 4.15684C10.1592 4.61117 10.3194 5.07595 10.4537 5.55117Z" fill="#003366"/>
</g>
</svg>
