<svg width="16" height="16" viewBox="0 0 16 16" fill="none" xmlns="http://www.w3.org/2000/svg">
<mask id="mask0_3978_2999" style="mask-type:alpha" maskUnits="userSpaceOnUse" x="0" y="0" width="16" height="16">
<rect width="16" height="16" fill="#D9D9D9"/>
</mask>
<g mask="url(#mask0_3978_2999)">
<path d="M11.6665 12.3798V13.6003C11.6665 13.7422 11.6186 13.861 11.5228 13.9567C11.4272 14.0524 11.3084 14.1003 11.1665 14.1003C11.0246 14.1003 10.9058 14.0524 10.8102 13.9567C10.7144 13.861 10.6665 13.7422 10.6665 13.6003V11.4747C10.6665 11.2482 10.7445 11.057 10.9005 10.901C11.0565 10.745 11.2477 10.667 11.4742 10.667H13.5998C13.7417 10.667 13.8605 10.7149 13.9562 10.8107C14.0519 10.9063 14.0998 11.0251 14.0998 11.167C14.0998 11.3089 14.0519 11.4277 13.9562 11.5233C13.8605 11.6191 13.7417 11.667 13.5998 11.667H12.3627L14.1512 13.4555C14.2434 13.5477 14.2895 13.662 14.2895 13.7983C14.2895 13.9347 14.2434 14.0524 14.1512 14.1517C14.0519 14.255 13.9331 14.3056 13.7947 14.3035C13.6562 14.3014 13.5374 14.2508 13.4383 14.1517L11.6665 12.3798ZM7.99984 14.3337C7.12462 14.3337 6.30178 14.1672 5.53134 13.8343C4.76078 13.5014 4.09045 13.0499 3.52034 12.4798C2.95023 11.9097 2.49873 11.2394 2.16584 10.4688C1.83295 9.69838 1.6665 8.87555 1.6665 8.00033C1.6665 7.1251 1.83295 6.30227 2.16584 5.53183C2.49873 4.76127 2.95023 4.09094 3.52034 3.52083C4.09045 2.95071 4.76078 2.49921 5.53134 2.16633C6.30178 1.83344 7.12462 1.66699 7.99984 1.66699C8.87506 1.66699 9.69789 1.83344 10.4683 2.16633C11.2389 2.49921 11.9092 2.95071 12.4793 3.52083C13.0494 4.09094 13.5009 4.76127 13.8338 5.53183C14.1667 6.30227 14.3332 7.1251 14.3332 8.00033C14.3332 8.11566 14.3304 8.23999 14.3248 8.37333C14.3193 8.50666 14.3088 8.63105 14.2933 8.74649C14.2754 8.88838 14.2158 9.00033 14.1145 9.08233C14.0133 9.16444 13.8883 9.20549 13.7395 9.20549C13.6087 9.20549 13.4972 9.14905 13.405 9.03616C13.3127 8.92338 13.2755 8.79949 13.2935 8.66449C13.3157 8.54905 13.3279 8.43833 13.33 8.33233C13.3321 8.22633 13.3332 8.11566 13.3332 8.00033C13.3332 7.75677 13.3172 7.51427 13.2852 7.27283C13.2531 7.03127 13.2028 6.79088 13.1345 6.55166H10.6562C10.6981 6.79088 10.7284 7.03127 10.7473 7.27283C10.7661 7.51427 10.7755 7.75677 10.7755 8.00033C10.7755 8.11566 10.7744 8.23833 10.7723 8.36833C10.7701 8.49821 10.7634 8.62083 10.7523 8.73616C10.7344 8.87805 10.6759 8.99171 10.5767 9.07716C10.4776 9.16271 10.3571 9.20549 10.2152 9.20549C10.0844 9.20549 9.97011 9.15249 9.87234 9.04649C9.77445 8.94049 9.73445 8.81999 9.75234 8.68499C9.76345 8.56955 9.77011 8.45544 9.77234 8.34266C9.77445 8.22977 9.7755 8.11566 9.7755 8.00033C9.7755 7.75677 9.76612 7.51427 9.74734 7.27283C9.72845 7.03127 9.69812 6.79088 9.65634 6.55166H6.34334C6.30156 6.79088 6.27123 7.03127 6.25234 7.27283C6.23356 7.51427 6.22417 7.75677 6.22417 8.00033C6.22417 8.24388 6.23356 8.48638 6.25234 8.72783C6.27123 8.96938 6.30156 9.20977 6.34334 9.44899H8.29467C8.43656 9.44899 8.55539 9.49688 8.65117 9.59266C8.74684 9.68833 8.79467 9.8071 8.79467 9.94899C8.79467 10.0909 8.74684 10.2097 8.65117 10.3055C8.55539 10.4012 8.43656 10.449 8.29467 10.449H6.57284C6.71906 10.9738 6.90945 11.477 7.144 11.9587C7.37867 12.4403 7.66395 12.8939 7.99984 13.3195C8.1195 13.3195 8.23917 13.3202 8.35884 13.3215C8.4785 13.3227 8.596 13.3157 8.71134 13.3003C8.849 13.2823 8.96395 13.3178 9.05617 13.4067C9.1485 13.4955 9.19467 13.6088 9.19467 13.7465C9.19467 13.8952 9.15645 14.0191 9.08 14.1183C9.00345 14.2174 8.89423 14.2759 8.75234 14.2938C8.637 14.3093 8.51267 14.3198 8.37934 14.3253C8.246 14.3309 8.1195 14.3337 7.99984 14.3337ZM2.86517 9.44899H5.3435C5.30162 9.20977 5.27123 8.96938 5.25234 8.72783C5.23356 8.48638 5.22417 8.24388 5.22417 8.00033C5.22417 7.75677 5.23356 7.51427 5.25234 7.27283C5.27123 7.03127 5.30162 6.79088 5.3435 6.55166H2.86517C2.79684 6.79088 2.74662 7.03127 2.7145 7.27283C2.6825 7.51427 2.6665 7.75677 2.6665 8.00033C2.6665 8.24388 2.6825 8.48638 2.7145 8.72783C2.74662 8.96938 2.79684 9.20977 2.86517 9.44899ZM6.70884 13.149C6.4405 12.7328 6.20995 12.2986 6.01717 11.8465C5.82439 11.3944 5.66734 10.9285 5.546 10.449H3.2845C3.63228 11.1353 4.10406 11.7144 4.69984 12.1862C5.29562 12.658 5.96528 12.979 6.70884 13.149ZM3.2845 5.55166H5.546C5.65878 5.06788 5.8105 4.59994 6.00117 4.14783C6.19173 3.6956 6.42762 3.26355 6.70884 2.85166C5.96095 3.01744 5.29023 3.33621 4.69667 3.80799C4.103 4.27977 3.63228 4.86099 3.2845 5.55166ZM6.57284 5.55166H9.42684C9.28495 5.02688 9.09345 4.52583 8.85234 4.04849C8.61134 3.57105 8.32717 3.11527 7.99984 2.68116C7.66817 3.10671 7.38289 3.56033 7.144 4.04199C6.90512 4.52366 6.71473 5.02688 6.57284 5.55166ZM10.4537 5.55166H12.7152C12.3674 4.86099 11.8967 4.27871 11.303 3.80483C10.7094 3.33083 10.0387 3.0131 9.29084 2.85166C9.55917 3.26788 9.7865 3.7031 9.97284 4.15733C10.1592 4.61166 10.3194 5.07644 10.4537 5.55166Z" fill="#6B7280"/>
</g>
</svg>
